<svg width="34" height="34" viewBox="0 0 34 34" fill="none" xmlns="http://www.w3.org/2000/svg">
<g clip-path="url(#clip0_145_472)">
<path d="M25.5283 24.2033C23.6143 23.5182 20.2521 22.9999 20.2521 15.8594H17.255H16.7421H13.745C13.745 22.9999 10.3828 23.5182 8.46875 24.2033C8.46875 29.0601 15.5264 29.2094 16.7421 29.6621V29.8197C16.7421 29.8197 16.8366 29.8004 16.9985 29.75C17.1604 29.8004 17.255 29.8197 17.255 29.8197V29.6621C18.4705 29.2094 25.5283 29.06 25.5283 24.2033Z" fill="#F3D8B6"/>
<path d="M20.2516 15.8594H17.2545H16.998V29.75C17.1599 29.8003 17.2545 29.8197 17.2545 29.8197V29.6621C18.4701 29.2095 25.5278 29.0601 25.5278 24.2033C23.6138 23.5182 20.2516 22.9999 20.2516 15.8594Z" fill="#EEC8A2"/>
<path d="M29.255 29.8306V34.0019H4.65039V29.8306C4.65039 26.7104 6.43214 23.9899 8.81383 22.5596C9.43344 22.1862 10.8327 21.7977 11.5663 21.6167C12.1767 21.4641 17.0455 22.9218 17.0455 22.9218C17.0455 22.9218 22.0363 21.5665 22.6467 21.7192C23.3803 21.9003 24.4721 22.1861 25.0916 22.5596C27.4733 23.99 29.255 26.7104 29.255 29.8306Z" fill="#545465"/>
<path d="M25.1838 22.5596C24.5643 22.1862 23.1649 21.7977 22.4314 21.6167C21.821 21.4641 17.0449 22.9218 17.0449 22.9218V34.0018H29.3473V29.8305C29.3473 26.7104 27.5654 23.99 25.1838 22.5596Z" fill="#494857"/>
<path d="M16.9985 18.1295C14.1835 18.1295 12.0349 15.759 11.0721 13.9814C10.1093 12.2037 9.44305 5.83547 11.5171 3.02068C13.5481 0.26423 16.9985 1.6018 16.9985 1.6018C16.9985 1.6018 20.4487 0.26423 22.4799 3.02068C24.5537 5.83547 23.8873 12.2037 22.9244 13.9814C21.9613 15.759 19.8129 18.1295 16.9985 18.1295Z" fill="#F3DBC4"/>
<path d="M22.4796 3.02068C20.4484 0.26423 16.9983 1.6018 16.9983 1.6018H16.998V18.1295H16.9983C19.8127 18.1295 21.961 15.759 22.9242 13.9814C23.887 12.2037 24.5534 5.83547 22.4796 3.02068Z" fill="#EDCEAE"/>
<path d="M22.8905 2.59633C22.6691 2.60453 21.6311 -0.613327 18.8627 0.104418C16.962 0.597202 16.7221 0.865126 15.9794 1.07471C12.9638 0.150457 10.0796 2.55859 10.1867 4.816C10.367 8.61698 9.69676 8.55905 10.1564 9.88677C10.6161 11.2145 11.0245 12.2868 11.0245 12.2868C11.0245 12.2868 11.1266 12.6523 11.3309 10.5587C11.5351 8.46502 10.8484 7.34124 12.4728 7.34124C17.851 7.34124 10.4531 9.43008 13.9034 9.43008C17.3271 9.43008 19.9737 6.62257 21.5853 6.41842C23.1967 6.21417 22.523 8.46502 22.7272 10.5587C22.9315 12.6523 23.0336 12.2868 23.0336 12.2868C23.0336 12.2868 23.9482 11.291 23.9017 9.88677C23.8494 8.30219 24.5548 2.5346 22.8905 2.59633Z" fill="#545465"/>
<path d="M22.8912 2.59633C22.6698 2.60453 21.6318 -0.613327 18.8634 0.104418C17.923 0.348144 17.3894 0.536911 17 0.690816V8.71951C18.9454 7.87329 20.5008 6.55572 21.586 6.41832C23.1975 6.21407 22.5237 8.46492 22.7279 10.5586C22.9322 12.6522 23.0343 12.2867 23.0343 12.2867C23.0343 12.2867 23.9489 11.2909 23.9024 9.88667C23.8501 8.30209 24.5555 2.5345 22.8912 2.59633Z" fill="#494857"/>
<path d="M24.3363 11.5548C24.6812 10.6447 24.5294 9.74348 23.9973 9.54188C23.4652 9.34029 22.7544 9.91465 22.4095 10.8248C22.0647 11.7349 22.2165 12.6361 22.7486 12.8377C23.2806 13.0393 23.9915 12.4649 24.3363 11.5548Z" fill="#EDCEAE"/>
<path d="M9.66045 11.5537C10.0053 12.4638 10.7162 13.0382 11.2482 12.8366C11.7803 12.635 11.9321 11.7338 11.5873 10.8237C11.2424 9.91357 10.5316 9.33921 9.99948 9.54081C9.46741 9.7424 9.31562 10.6436 9.66045 11.5537Z" fill="#F3DBC4"/>
<path d="M21.8852 33.9991H12.1113V20.9844L16.9982 22.3916L21.8852 20.9844V33.9991Z" fill="white"/>
<path d="M16.998 22.3916V33.9991H21.885V20.9844L16.998 22.3916Z" fill="#DFE0E7"/>
<path d="M12.9976 20.625C12.9976 20.625 9.67015 21.4966 8.92862 22.5348C8.18709 23.5729 7.74219 24.9818 7.74219 24.9818L10.6341 26.0199L8.49244 28.1059L11.4466 33.9879H14.1936C14.1936 33.9879 12.0539 26.5588 12.0064 23.9403C11.9909 23.0824 12.9976 20.625 12.9976 20.625Z" fill="#494857"/>
<path d="M20.9993 20.625C20.9993 20.625 24.3268 21.4966 25.0683 22.5348C25.8098 23.5729 26.2547 24.9818 26.2547 24.9818L23.3628 26.0199L25.5045 28.1059L22.6181 33.9879H19.8711C19.8711 33.9879 21.943 26.5588 21.9904 23.9403C22.006 23.0824 20.9993 20.625 20.9993 20.625Z" fill="#3B3A47"/>
</g>
<defs>
<clipPath id="clip0_145_472">
<rect width="34" height="34" fill="white"/>
</clipPath>
</defs>
</svg>
