<svg width="80" height="80" viewBox="0 0 80 80" fill="none" xmlns="http://www.w3.org/2000/svg">
<g clip-path="url(#clip0_172_601)">
<path d="M74.3043 31.8039C71.8504 29.3497 68.2455 28.9085 65.3946 30.2733L46.3165 11.1949C47.7018 8.28645 47.1938 4.69348 44.7891 2.28879C41.7379 -0.76293 36.7724 -0.76293 33.7208 2.28879L22.6524 13.3571C19.601 16.4085 19.601 21.3738 22.6524 24.4252C25.051 26.8241 28.6383 27.3436 31.5585 25.9525L35.5655 29.9596L2.32928 63.1958C-0.729317 66.2543 -0.729785 71.205 2.32928 74.2639C5.38787 77.3227 10.3385 77.3232 13.3976 74.2639L46.6338 41.0279L50.6404 45.0343C49.2547 47.9429 49.7627 51.5357 52.1676 53.9405C53.6457 55.4186 55.6111 56.233 57.7018 56.233C59.7924 56.233 61.7576 55.4189 63.2358 53.9405L74.3041 42.8722C77.3558 39.8207 77.3558 34.8557 74.3043 31.8039ZM30.0315 20.7358C29.0143 21.7529 27.3591 21.7525 26.3419 20.7358C25.3249 19.7185 25.3249 18.0636 26.3419 17.0464L37.4102 5.97816C38.4272 4.96113 40.0821 4.96066 41.0996 5.97816C42.1168 6.99535 42.1168 8.65035 41.0997 9.66754L30.0315 20.7358ZM9.70818 70.5743C8.6885 71.5938 7.0385 71.5939 6.01881 70.5743C4.99928 69.5547 4.99912 67.9044 6.01881 66.8849L39.2551 33.6486L42.9444 37.3382L9.70818 70.5743ZM35.5655 22.5805L37.4101 20.7357L42.9443 15.2014L61.3915 33.6488L54.0127 41.0277L35.5655 22.5805ZM70.6151 39.183L59.5468 50.2513C58.5271 51.271 56.8771 51.271 55.8574 50.2513C54.8402 49.2341 54.8402 47.5789 55.8574 46.5618L66.9258 35.4935C67.9452 34.4738 69.5955 34.4739 70.6151 35.4935C71.6347 36.513 71.6347 38.1632 70.6151 39.183Z" fill="white"/>
<path d="M72.1383 64.3477H51.2678C46.9523 64.3477 43.4414 67.8586 43.4414 72.1741V77.3917C43.4414 78.8325 44.6095 80.0005 46.0502 80.0005H77.3559C78.7967 80.0005 79.9647 78.8323 79.9647 77.3917V72.1741C79.9648 67.8586 76.4539 64.3477 72.1383 64.3477ZM74.7472 74.7828H48.6591V72.1741C48.6591 70.7356 49.8294 69.5653 51.2678 69.5653H72.1383C73.5767 69.5653 74.747 70.7356 74.747 72.1741V74.7828H74.7472Z" fill="white"/>
</g>
<defs>
<clipPath id="clip0_172_601">
<rect width="80" height="80" fill="white"/>
</clipPath>
</defs>
</svg>
