<svg width="25" height="25" viewBox="0 0 25 25" fill="none" xmlns="http://www.w3.org/2000/svg">
<path d="M14.6875 11.3555C14.2708 10.9388 13.6458 10.9388 13.2292 11.3555L12.5 12.0846L11.7708 11.3555C11.3542 10.9388 10.7292 10.9388 10.3125 11.3555C9.89583 11.7721 9.89583 12.3971 10.3125 12.8138L11.0417 13.543L10.3125 14.2721C9.89583 14.6888 9.89583 15.3138 10.3125 15.7305C10.5208 15.9388 10.8333 16.043 11.0417 16.043C11.25 16.043 11.5625 15.9388 11.7708 15.7305L12.5 15.0013L13.2292 15.7305C13.4375 15.9388 13.75 16.043 13.9583 16.043C14.1667 16.043 14.4792 15.9388 14.6875 15.7305C15.1042 15.3138 15.1042 14.6888 14.6875 14.2721L13.9583 13.543L14.6875 12.8138C15.1042 12.3971 15.1042 11.7721 14.6875 11.3555Z" fill="#C6C6C6"/>
<path d="M18.7507 5.20833V4.16667C18.7507 3.54167 18.334 3.125 17.709 3.125C17.084 3.125 16.6673 3.54167 16.6673 4.16667V5.20833H8.33398V4.16667C8.33398 3.54167 7.91732 3.125 7.29232 3.125C6.66732 3.125 6.25065 3.54167 6.25065 4.16667V5.20833C3.95898 5.20833 2.08398 7.08333 2.08398 9.375V16.6667C2.08398 18.9583 3.95898 20.8333 6.25065 20.8333H18.7507C21.0423 20.8333 22.9173 18.9583 22.9173 16.6667V9.375C22.9173 7.08333 21.0423 5.20833 18.7507 5.20833ZM20.834 16.6667C20.834 17.8125 19.8965 18.75 18.7507 18.75H6.25065C5.10482 18.75 4.16732 17.8125 4.16732 16.6667V9.375C4.16732 8.22917 5.10482 7.29167 6.25065 7.29167C6.25065 7.91667 6.66732 8.33333 7.29232 8.33333C7.91732 8.33333 8.33398 7.91667 8.33398 7.29167H16.6673C16.6673 7.91667 17.084 8.33333 17.709 8.33333C18.334 8.33333 18.7507 7.91667 18.7507 7.29167C19.8965 7.29167 20.834 8.22917 20.834 9.375V16.6667Z" fill="#C6C6C6"/>
</svg>
