<svg width="650" height="400" viewBox="0 0 650 400" fill="none" xmlns="http://www.w3.org/2000/svg">
<g clip-path="url(#clip0_269_617)">
<path d="M650 0H0V400H650V0Z" fill="white"/>
<path d="M65 326.5H640" stroke="#E6E6E6"/>
<path d="M65 44.5H640" stroke="#E6E6E6"/>
<path d="M65 256.5H640" stroke="#E6E6E6"/>
<path d="M65 186.5H640" stroke="#E6E6E6"/>
<path d="M65 115.5H640" stroke="#E6E6E6"/>
<path d="M65 326.5H640" stroke="#CCD6EB"/>
<path d="M14.7669 199.618L22.1135 197.028V196.925L14.7669 194.334V193.226L23.4941 196.431V197.522L14.7669 200.726V199.618ZM23.6475 190.687C23.6475 191.101 23.5694 191.478 23.4132 191.816C23.2541 192.154 23.0254 192.422 22.7271 192.621C22.426 192.82 22.0623 192.92 21.6362 192.92C21.2612 192.92 20.9572 192.846 20.7243 192.698C20.4885 192.55 20.3038 192.353 20.1703 192.106C20.0368 191.858 19.9373 191.586 19.872 191.287C19.8038 190.986 19.7498 190.684 19.71 190.38C19.6589 189.982 19.6206 189.66 19.595 189.412C19.5666 189.162 19.5197 188.981 19.4544 188.867C19.389 188.751 19.2754 188.692 19.1135 188.692H19.0794C18.6589 188.692 18.3322 188.807 18.0993 189.037C17.8663 189.265 17.7498 189.61 17.7498 190.073C17.7498 190.553 17.8549 190.93 18.0652 191.202C18.2754 191.475 18.4998 191.667 18.7385 191.778L18.3975 192.732C17.9998 192.562 17.6902 192.334 17.4686 192.05C17.2441 191.763 17.0879 191.451 16.9998 191.113C16.9089 190.772 16.8635 190.437 16.8635 190.107C16.8635 189.897 16.889 189.655 16.9402 189.383C16.9885 189.107 17.0893 188.841 17.2427 188.586C17.3961 188.327 17.6277 188.113 17.9373 187.942C18.247 187.772 18.6618 187.687 19.1816 187.687H23.4941V188.692H22.6078V188.743C22.7498 188.812 22.9018 188.925 23.0637 189.084C23.2257 189.243 23.3635 189.455 23.4771 189.719C23.5907 189.983 23.6475 190.306 23.6475 190.687ZM22.7441 190.533C22.7441 190.135 22.666 189.8 22.5098 189.528C22.3535 189.252 22.1518 189.045 21.9047 188.905C21.6575 188.763 21.3975 188.692 21.1248 188.692H20.2044C20.2555 188.735 20.3024 188.829 20.345 188.974C20.3848 189.116 20.4203 189.28 20.4515 189.468C20.4799 189.653 20.5055 189.833 20.5282 190.009C20.5481 190.182 20.5652 190.323 20.5794 190.431C20.6135 190.692 20.6689 190.937 20.7456 191.164C20.8194 191.388 20.9316 191.57 21.0822 191.709C21.2299 191.846 21.4316 191.914 21.6873 191.914C22.0368 191.914 22.301 191.785 22.4799 191.526C22.6561 191.265 22.7441 190.934 22.7441 190.533ZM14.7669 184.845H23.4941V185.851H14.7669V184.845ZM20.818 178.878H16.9487V177.873H23.4941V178.878H22.3862V178.947C22.7186 179.1 23.0012 179.339 23.2342 179.662C23.4643 179.986 23.5794 180.395 23.5794 180.89C23.5794 181.299 23.4899 181.662 23.3109 181.981C23.1291 182.299 22.8564 182.549 22.4927 182.731C22.1262 182.912 21.6646 183.003 21.1078 183.003H16.9487V181.998H21.0396C21.5169 181.998 21.8975 181.864 22.1816 181.597C22.4657 181.327 22.6078 180.983 22.6078 180.566C22.6078 180.316 22.5439 180.062 22.416 179.803C22.2882 179.542 22.0922 179.323 21.8279 179.147C21.5637 178.968 21.2271 178.878 20.818 178.878ZM23.6305 173.286C23.6305 173.917 23.4913 174.461 23.2129 174.919C22.9316 175.373 22.5396 175.724 22.0368 175.971C21.5311 176.215 20.943 176.338 20.2725 176.338C19.6021 176.338 19.0112 176.215 18.4998 175.971C17.9856 175.724 17.585 175.38 17.2981 174.94C17.0083 174.497 16.8635 173.98 16.8635 173.389C16.8635 173.048 16.9203 172.711 17.0339 172.379C17.1475 172.046 17.3322 171.744 17.5879 171.471C17.8407 171.198 18.176 170.981 18.5936 170.819C19.0112 170.657 19.5254 170.576 20.1362 170.576H20.5623V175.622H19.693V171.599C19.3237 171.599 18.9941 171.673 18.7044 171.82C18.4146 171.965 18.1859 172.173 18.0183 172.443C17.8507 172.71 17.7669 173.025 17.7669 173.389C17.7669 173.789 17.8663 174.136 18.0652 174.428C18.2612 174.718 18.5169 174.941 18.8322 175.097C19.1475 175.254 19.4856 175.332 19.8464 175.332H20.426C20.9203 175.332 21.3393 175.247 21.6831 175.076C22.024 174.903 22.2839 174.663 22.4629 174.356C22.639 174.049 22.7271 173.693 22.7271 173.286C22.7271 173.022 22.6902 172.784 22.6163 172.57C22.5396 172.355 22.426 172.169 22.2754 172.012C22.122 171.856 21.9316 171.735 21.7044 171.65L21.9771 170.678C22.3066 170.781 22.5964 170.953 22.8464 171.194C23.0936 171.436 23.2868 171.734 23.426 172.089C23.5623 172.444 23.6305 172.843 23.6305 173.286Z" fill="#666666"/>
<path d="M108 97H90V327H108V97Z" fill="#FFAA6C"/>
<path d="M204 172H186V327H204V172Z" fill="#FFAA6C"/>
<path d="M300 184H282V327H300V184Z" fill="#FFAA6C"/>
<path d="M395 88H377V327H395V88Z" fill="#FFAA6C"/>
<path d="M491 158H473V327H491V158Z" fill="#FFAA6C"/>
<path d="M587 60H569V327H587V60Z" fill="#FFAA6C"/>
<path d="M137 246H119V327H137V246Z" fill="#BB71F6"/>
<path d="M233 136H215V327H233V136Z" fill="#BB71F6"/>
<path d="M328 226H310V327H328V226Z" fill="#BB71F6"/>
<path d="M424 147H406V327H424V147Z" fill="#BB71F6"/>
<path d="M520 260H502V327H520V260Z" fill="#BB71F6"/>
<path d="M616 234H598V327H616V234Z" fill="#BB71F6"/>
<path d="M638.5 10.5H618.5C617.395 10.5 616.5 11.3954 616.5 12.5V30.5C616.5 31.6046 617.395 32.5 618.5 32.5H638.5C639.605 32.5 640.5 31.6046 640.5 30.5V12.5C640.5 11.3954 639.605 10.5 638.5 10.5Z" fill="white"/>
<path d="M622 16.5H636H622ZM622 21.5H636H622ZM622 26.5H636H622Z" fill="#666666"/>
<path d="M622 16.5H636M622 21.5H636M622 26.5H636" stroke="#666666" stroke-width="3" stroke-linecap="round"/>
<path d="M283.604 368.273V377H281.759V368.273H283.604ZM288.569 370.455V371.818H284.627V370.455H288.569ZM285.522 368.886H287.338V374.989C287.338 375.156 287.363 375.287 287.414 375.381C287.466 375.472 287.537 375.536 287.627 375.572C287.721 375.609 287.829 375.628 287.951 375.628C288.037 375.628 288.122 375.621 288.207 375.607C288.292 375.589 288.358 375.577 288.403 375.568L288.689 376.919C288.598 376.947 288.47 376.98 288.305 377.017C288.14 377.057 287.94 377.081 287.704 377.089C287.267 377.107 286.883 377.048 286.554 376.915C286.227 376.781 285.973 376.574 285.791 376.293C285.609 376.011 285.52 375.656 285.522 375.227V368.886ZM292.664 377.128C291.991 377.128 291.412 376.991 290.926 376.719C290.443 376.443 290.071 376.054 289.809 375.551C289.548 375.045 289.417 374.447 289.417 373.757C289.417 373.084 289.548 372.493 289.809 371.984C290.071 371.476 290.439 371.08 290.913 370.795C291.39 370.511 291.95 370.369 292.592 370.369C293.024 370.369 293.426 370.439 293.798 370.578C294.173 370.714 294.5 370.92 294.778 371.196C295.059 371.472 295.278 371.818 295.434 372.236C295.591 372.651 295.669 373.136 295.669 373.693V374.192H290.142V373.067H293.96C293.96 372.805 293.903 372.574 293.789 372.372C293.676 372.17 293.518 372.013 293.316 371.899C293.118 371.783 292.886 371.724 292.622 371.724C292.346 371.724 292.102 371.788 291.889 371.916C291.679 372.041 291.514 372.21 291.395 372.423C291.275 372.634 291.214 372.868 291.211 373.126V374.196C291.211 374.52 291.271 374.8 291.39 375.036C291.512 375.271 291.684 375.453 291.906 375.581C292.127 375.709 292.39 375.773 292.694 375.773C292.896 375.773 293.081 375.744 293.248 375.688C293.416 375.631 293.559 375.545 293.679 375.432C293.798 375.318 293.889 375.179 293.951 375.014L295.63 375.125C295.545 375.528 295.37 375.881 295.106 376.182C294.845 376.48 294.507 376.713 294.092 376.881C293.68 377.045 293.204 377.128 292.664 377.128ZM296.853 377V370.455H298.583V371.609H298.66C298.797 371.226 299.024 370.923 299.342 370.702C299.66 370.48 300.041 370.369 300.484 370.369C300.933 370.369 301.315 370.482 301.63 370.706C301.946 370.928 302.156 371.229 302.261 371.609H302.329C302.463 371.234 302.704 370.935 303.054 370.71C303.406 370.483 303.822 370.369 304.302 370.369C304.913 370.369 305.409 370.564 305.789 370.953C306.173 371.339 306.365 371.888 306.365 372.598V377H304.554V372.956C304.554 372.592 304.457 372.32 304.264 372.138C304.071 371.956 303.829 371.865 303.539 371.865C303.21 371.865 302.953 371.97 302.768 372.18C302.583 372.388 302.491 372.662 302.491 373.003V377H300.731V372.918C300.731 372.597 300.639 372.341 300.454 372.151C300.272 371.96 300.032 371.865 299.734 371.865C299.532 371.865 299.35 371.916 299.189 372.018C299.029 372.118 298.903 372.259 298.809 372.44C298.716 372.619 298.669 372.83 298.669 373.071V377H296.853ZM314.356 368.273V377H312.511V370.024H312.46L310.461 371.277V369.641L312.621 368.273H314.356Z" fill="#333333"/>
<path d="M274 372C274 368.686 271.314 366 268 366C264.686 366 262 368.686 262 372C262 375.314 264.686 378 268 378C271.314 378 274 375.314 274 372Z" fill="#FFAA6C"/>
<path d="M358.51 368.273V377H356.665V368.273H358.51ZM363.475 370.455V371.818H359.534V370.455H363.475ZM360.429 368.886H362.244V374.989C362.244 375.156 362.27 375.287 362.321 375.381C362.372 375.472 362.443 375.536 362.534 375.572C362.627 375.609 362.735 375.628 362.858 375.628C362.943 375.628 363.028 375.621 363.113 375.607C363.199 375.589 363.264 375.577 363.309 375.568L363.595 376.919C363.504 376.947 363.376 376.98 363.211 377.017C363.047 377.057 362.846 377.081 362.61 377.089C362.173 377.107 361.789 377.048 361.46 376.915C361.133 376.781 360.879 376.574 360.697 376.293C360.515 376.011 360.426 375.656 360.429 375.227V368.886ZM367.571 377.128C366.897 377.128 366.318 376.991 365.832 376.719C365.349 376.443 364.977 376.054 364.716 375.551C364.454 375.045 364.324 374.447 364.324 373.757C364.324 373.084 364.454 372.493 364.716 371.984C364.977 371.476 365.345 371.08 365.819 370.795C366.297 370.511 366.856 370.369 367.498 370.369C367.93 370.369 368.332 370.439 368.704 370.578C369.079 370.714 369.406 370.92 369.684 371.196C369.966 371.472 370.184 371.818 370.341 372.236C370.497 372.651 370.575 373.136 370.575 373.693V374.192H365.048V373.067H368.866C368.866 372.805 368.809 372.574 368.696 372.372C368.582 372.17 368.424 372.013 368.223 371.899C368.024 371.783 367.792 371.724 367.528 371.724C367.252 371.724 367.008 371.788 366.795 371.916C366.585 372.041 366.42 372.21 366.301 372.423C366.181 372.634 366.12 372.868 366.118 373.126V374.196C366.118 374.52 366.177 374.8 366.297 375.036C366.419 375.271 366.591 375.453 366.812 375.581C367.034 375.709 367.297 375.773 367.6 375.773C367.802 375.773 367.987 375.744 368.154 375.688C368.322 375.631 368.466 375.545 368.585 375.432C368.704 375.318 368.795 375.179 368.858 375.014L370.537 375.125C370.451 375.528 370.277 375.881 370.012 376.182C369.751 376.48 369.413 376.713 368.998 376.881C368.586 377.045 368.11 377.128 367.571 377.128ZM371.76 377V370.455H373.49V371.609H373.566C373.703 371.226 373.93 370.923 374.248 370.702C374.566 370.48 374.947 370.369 375.39 370.369C375.839 370.369 376.221 370.482 376.537 370.706C376.852 370.928 377.062 371.229 377.167 371.609H377.235C377.369 371.234 377.61 370.935 377.96 370.71C378.312 370.483 378.728 370.369 379.208 370.369C379.819 370.369 380.315 370.564 380.696 370.953C381.079 371.339 381.271 371.888 381.271 372.598V377H379.46V372.956C379.46 372.592 379.363 372.32 379.17 372.138C378.977 371.956 378.735 371.865 378.446 371.865C378.116 371.865 377.859 371.97 377.674 372.18C377.49 372.388 377.397 372.662 377.397 373.003V377H375.637V372.918C375.637 372.597 375.545 372.341 375.36 372.151C375.179 371.96 374.939 371.865 374.64 371.865C374.439 371.865 374.257 371.916 374.095 372.018C373.936 372.118 373.809 372.259 373.716 372.44C373.622 372.619 373.575 372.83 373.575 373.071V377H371.76ZM385.465 377V375.67L388.572 372.794C388.836 372.538 389.058 372.308 389.237 372.104C389.418 371.899 389.556 371.699 389.65 371.503C389.744 371.304 389.79 371.089 389.79 370.859C389.79 370.604 389.732 370.384 389.616 370.199C389.499 370.011 389.34 369.868 389.138 369.768C388.937 369.666 388.708 369.615 388.452 369.615C388.185 369.615 387.952 369.669 387.754 369.777C387.555 369.885 387.401 370.04 387.293 370.241C387.185 370.443 387.131 370.683 387.131 370.962H385.38C385.38 370.391 385.509 369.895 385.768 369.474C386.026 369.054 386.388 368.729 386.854 368.499C387.32 368.268 387.857 368.153 388.465 368.153C389.09 368.153 389.634 368.264 390.097 368.486C390.563 368.705 390.925 369.009 391.184 369.398C391.442 369.787 391.572 370.233 391.572 370.736C391.572 371.065 391.506 371.391 391.376 371.712C391.248 372.033 391.019 372.389 390.69 372.781C390.36 373.17 389.896 373.638 389.296 374.183L388.022 375.432V375.491H391.687V377H385.465Z" fill="#333333"/>
<path d="M348.906 372C348.906 368.686 346.22 366 342.906 366C339.593 366 336.906 368.686 336.906 372C336.906 375.314 339.593 378 342.906 378C346.22 378 348.906 375.314 348.906 372Z" fill="#BB71F6"/>
<path d="M92.1187 339.5H91.1499C91.0926 339.221 90.9924 338.977 90.8491 338.766C90.7085 338.555 90.5366 338.378 90.3335 338.234C90.133 338.089 89.9103 337.979 89.6655 337.906C89.4207 337.833 89.1655 337.797 88.8999 337.797C88.4155 337.797 87.9767 337.919 87.5835 338.164C87.1929 338.409 86.8817 338.77 86.6499 339.246C86.4207 339.723 86.3062 340.307 86.3062 341C86.3062 341.693 86.4207 342.277 86.6499 342.754C86.8817 343.23 87.1929 343.591 87.5835 343.836C87.9767 344.081 88.4155 344.203 88.8999 344.203C89.1655 344.203 89.4207 344.167 89.6655 344.094C89.9103 344.021 90.133 343.913 90.3335 343.77C90.5366 343.624 90.7085 343.445 90.8491 343.234C90.9924 343.021 91.0926 342.776 91.1499 342.5H92.1187C92.0457 342.909 91.9129 343.275 91.7202 343.598C91.5275 343.921 91.2879 344.195 91.0015 344.422C90.715 344.646 90.3934 344.816 90.0366 344.934C89.6825 345.051 89.3035 345.109 88.8999 345.109C88.2176 345.109 87.6108 344.943 87.0796 344.609C86.5483 344.276 86.1304 343.802 85.8257 343.187C85.521 342.573 85.3687 341.844 85.3687 341C85.3687 340.156 85.521 339.427 85.8257 338.812C86.1304 338.198 86.5483 337.724 87.0796 337.391C87.6108 337.057 88.2176 336.891 88.8999 336.891C89.3035 336.891 89.6825 336.949 90.0366 337.066C90.3934 337.184 90.715 337.355 91.0015 337.582C91.2879 337.806 91.5275 338.079 91.7202 338.402C91.9129 338.723 92.0457 339.089 92.1187 339.5ZM95.3247 345.141C94.9445 345.141 94.5994 345.069 94.2896 344.926C93.9797 344.78 93.7336 344.57 93.5513 344.297C93.369 344.021 93.2778 343.687 93.2778 343.297C93.2778 342.953 93.3455 342.674 93.481 342.461C93.6164 342.245 93.7974 342.076 94.0239 341.953C94.2505 341.831 94.5005 341.74 94.7739 341.68C95.05 341.617 95.3273 341.568 95.606 341.531C95.9705 341.484 96.2661 341.449 96.4927 341.426C96.7218 341.4 96.8885 341.357 96.9927 341.297C97.0994 341.237 97.1528 341.133 97.1528 340.984V340.953C97.1528 340.568 97.0474 340.268 96.8364 340.055C96.6281 339.841 96.3117 339.734 95.8872 339.734C95.4471 339.734 95.1021 339.831 94.8521 340.023C94.6021 340.216 94.4263 340.422 94.3247 340.641L93.4497 340.328C93.606 339.964 93.8143 339.68 94.0747 339.477C94.3377 339.271 94.6242 339.128 94.9341 339.047C95.2466 338.964 95.5539 338.922 95.856 338.922C96.0487 338.922 96.27 338.945 96.52 338.992C96.7726 339.036 97.0161 339.129 97.2505 339.27C97.4875 339.41 97.6841 339.622 97.8403 339.906C97.9966 340.19 98.0747 340.57 98.0747 341.047V345H97.1528V344.187H97.106C97.0435 344.318 96.9393 344.457 96.7935 344.605C96.6476 344.754 96.4536 344.88 96.2114 344.984C95.9692 345.089 95.6737 345.141 95.3247 345.141ZM95.4653 344.312C95.8299 344.312 96.1372 344.241 96.3872 344.098C96.6398 343.954 96.8299 343.77 96.9575 343.543C97.0877 343.316 97.1528 343.078 97.1528 342.828V341.984C97.1138 342.031 97.0278 342.074 96.895 342.113C96.7648 342.15 96.6138 342.182 96.4419 342.211C96.2726 342.237 96.1073 342.26 95.9458 342.281C95.7869 342.299 95.658 342.315 95.5591 342.328C95.3195 342.359 95.0955 342.41 94.8872 342.48C94.6815 342.548 94.5148 342.651 94.3872 342.789C94.2622 342.924 94.1997 343.109 94.1997 343.344C94.1997 343.664 94.3182 343.906 94.5552 344.07C94.7948 344.232 95.0981 344.312 95.4653 344.312ZM102.367 339V339.781H99.2573V339H102.367ZM100.164 337.562H101.085V343.281C101.085 343.542 101.123 343.737 101.199 343.867C101.277 343.995 101.376 344.081 101.496 344.125C101.618 344.167 101.747 344.187 101.882 344.187C101.984 344.187 102.067 344.182 102.132 344.172C102.197 344.159 102.25 344.148 102.289 344.141L102.476 344.969C102.414 344.992 102.326 345.016 102.214 345.039C102.102 345.065 101.96 345.078 101.789 345.078C101.528 345.078 101.273 345.022 101.023 344.91C100.776 344.798 100.57 344.628 100.406 344.398C100.244 344.169 100.164 343.88 100.164 343.531V337.562ZM106.205 345.125C105.626 345.125 105.128 344.997 104.708 344.742C104.292 344.484 103.97 344.125 103.744 343.664C103.52 343.201 103.408 342.661 103.408 342.047C103.408 341.432 103.52 340.891 103.744 340.422C103.97 339.951 104.285 339.583 104.689 339.32C105.095 339.055 105.569 338.922 106.111 338.922C106.423 338.922 106.732 338.974 107.037 339.078C107.341 339.182 107.619 339.352 107.869 339.586C108.119 339.818 108.318 340.125 108.466 340.508C108.615 340.891 108.689 341.362 108.689 341.922V342.312H104.064V341.516H107.751C107.751 341.177 107.684 340.875 107.548 340.609C107.416 340.344 107.225 340.134 106.978 339.98C106.733 339.827 106.444 339.75 106.111 339.75C105.744 339.75 105.426 339.841 105.158 340.023C104.892 340.203 104.688 340.437 104.544 340.727C104.401 341.016 104.33 341.326 104.33 341.656V342.188C104.33 342.641 104.408 343.025 104.564 343.34C104.723 343.652 104.943 343.891 105.224 344.055C105.505 344.216 105.832 344.297 106.205 344.297C106.447 344.297 106.666 344.263 106.861 344.195C107.059 344.125 107.229 344.021 107.373 343.883C107.516 343.742 107.626 343.568 107.705 343.359L108.595 343.609C108.501 343.911 108.344 344.177 108.123 344.406C107.901 344.633 107.628 344.81 107.302 344.937C106.977 345.063 106.611 345.125 106.205 345.125ZM112.513 347.375C112.068 347.375 111.685 347.318 111.365 347.203C111.044 347.091 110.778 346.943 110.564 346.758C110.353 346.576 110.185 346.38 110.06 346.172L110.794 345.656C110.878 345.766 110.983 345.891 111.111 346.031C111.238 346.174 111.413 346.298 111.634 346.402C111.858 346.509 112.151 346.562 112.513 346.562C112.998 346.562 113.397 346.445 113.712 346.211C114.028 345.977 114.185 345.609 114.185 345.109V343.891H114.107C114.039 344 113.943 344.135 113.818 344.297C113.695 344.456 113.518 344.598 113.287 344.723C113.057 344.845 112.748 344.906 112.357 344.906C111.873 344.906 111.438 344.792 111.052 344.563C110.669 344.333 110.366 344 110.142 343.562C109.921 343.125 109.81 342.594 109.81 341.969C109.81 341.354 109.918 340.819 110.134 340.363C110.35 339.905 110.651 339.551 111.037 339.301C111.422 339.048 111.867 338.922 112.373 338.922C112.763 338.922 113.073 338.987 113.302 339.117C113.534 339.245 113.711 339.391 113.833 339.555C113.958 339.716 114.055 339.849 114.123 339.953H114.216V339H115.107V345.172C115.107 345.688 114.99 346.107 114.755 346.43C114.524 346.755 114.211 346.993 113.818 347.145C113.427 347.298 112.992 347.375 112.513 347.375ZM112.482 344.078C112.852 344.078 113.164 343.993 113.419 343.824C113.675 343.655 113.869 343.411 114.001 343.094C114.134 342.776 114.201 342.396 114.201 341.953C114.201 341.521 114.136 341.139 114.005 340.809C113.875 340.478 113.682 340.219 113.427 340.031C113.172 339.844 112.857 339.75 112.482 339.75C112.091 339.75 111.766 339.849 111.505 340.047C111.248 340.245 111.054 340.51 110.923 340.844C110.796 341.177 110.732 341.547 110.732 341.953C110.732 342.37 110.797 342.738 110.927 343.059C111.06 343.376 111.255 343.626 111.513 343.809C111.774 343.988 112.097 344.078 112.482 344.078ZM119.232 345.125C118.69 345.125 118.215 344.996 117.806 344.738C117.4 344.48 117.082 344.12 116.853 343.656C116.626 343.193 116.513 342.651 116.513 342.031C116.513 341.406 116.626 340.861 116.853 340.395C117.082 339.928 117.4 339.566 117.806 339.309C118.215 339.051 118.69 338.922 119.232 338.922C119.774 338.922 120.248 339.051 120.654 339.309C121.063 339.566 121.38 339.928 121.607 340.395C121.836 340.861 121.951 341.406 121.951 342.031C121.951 342.651 121.836 343.193 121.607 343.656C121.38 344.12 121.063 344.48 120.654 344.738C120.248 344.996 119.774 345.125 119.232 345.125ZM119.232 344.297C119.643 344.297 119.982 344.191 120.248 343.98C120.513 343.77 120.71 343.492 120.837 343.148C120.965 342.805 121.029 342.432 121.029 342.031C121.029 341.63 120.965 341.257 120.837 340.91C120.71 340.564 120.513 340.284 120.248 340.07C119.982 339.857 119.643 339.75 119.232 339.75C118.82 339.75 118.482 339.857 118.216 340.07C117.951 340.284 117.754 340.564 117.626 340.91C117.499 341.257 117.435 341.63 117.435 342.031C117.435 342.432 117.499 342.805 117.626 343.148C117.754 343.492 117.951 343.77 118.216 343.98C118.482 344.191 118.82 344.297 119.232 344.297ZM123.358 345V339H124.249V339.906H124.311C124.42 339.609 124.618 339.368 124.905 339.184C125.191 338.999 125.514 338.906 125.874 338.906C125.941 338.906 126.026 338.908 126.127 338.91C126.229 338.913 126.306 338.917 126.358 338.922V339.859C126.327 339.852 126.255 339.84 126.143 339.824C126.034 339.806 125.918 339.797 125.795 339.797C125.504 339.797 125.243 339.858 125.014 339.98C124.788 340.1 124.608 340.267 124.475 340.48C124.345 340.691 124.28 340.932 124.28 341.203V345H123.358ZM128.227 347.25C128.071 347.25 127.931 347.237 127.809 347.211C127.687 347.188 127.602 347.164 127.555 347.141L127.79 346.328C128.014 346.385 128.211 346.406 128.383 346.391C128.555 346.375 128.708 346.298 128.84 346.16C128.976 346.025 129.099 345.805 129.211 345.5L129.383 345.031L127.165 339H128.165L129.821 343.781H129.883L131.54 339H132.54L129.993 345.875C129.878 346.185 129.736 346.441 129.567 346.645C129.398 346.85 129.201 347.003 128.977 347.102C128.756 347.201 128.506 347.25 128.227 347.25ZM139.647 337V345H138.678V338.016H138.631L136.678 339.312V338.328L138.678 337H139.647Z" fill="#666666"/>
<path d="M187.179 339.5H186.21C186.153 339.221 186.053 338.977 185.91 338.766C185.769 338.555 185.597 338.378 185.394 338.234C185.194 338.089 184.971 337.979 184.726 337.906C184.481 337.833 184.226 337.797 183.96 337.797C183.476 337.797 183.037 337.919 182.644 338.164C182.253 338.409 181.942 338.77 181.71 339.246C181.481 339.723 181.367 340.307 181.367 341C181.367 341.693 181.481 342.277 181.71 342.754C181.942 343.23 182.253 343.591 182.644 343.836C183.037 344.081 183.476 344.203 183.96 344.203C184.226 344.203 184.481 344.167 184.726 344.094C184.971 344.021 185.194 343.913 185.394 343.77C185.597 343.624 185.769 343.445 185.91 343.234C186.053 343.021 186.153 342.776 186.21 342.5H187.179C187.106 342.909 186.973 343.275 186.781 343.598C186.588 343.921 186.348 344.195 186.062 344.422C185.776 344.646 185.454 344.816 185.097 344.934C184.743 345.051 184.364 345.109 183.96 345.109C183.278 345.109 182.671 344.943 182.14 344.609C181.609 344.276 181.191 343.802 180.886 343.187C180.582 342.573 180.429 341.844 180.429 341C180.429 340.156 180.582 339.427 180.886 338.812C181.191 338.198 181.609 337.724 182.14 337.391C182.671 337.057 183.278 336.891 183.96 336.891C184.364 336.891 184.743 336.949 185.097 337.066C185.454 337.184 185.776 337.355 186.062 337.582C186.348 337.806 186.588 338.079 186.781 338.402C186.973 338.723 187.106 339.089 187.179 339.5ZM190.385 345.141C190.005 345.141 189.66 345.069 189.35 344.926C189.04 344.78 188.794 344.57 188.612 344.297C188.43 344.021 188.338 343.687 188.338 343.297C188.338 342.953 188.406 342.674 188.542 342.461C188.677 342.245 188.858 342.076 189.084 341.953C189.311 341.831 189.561 341.74 189.834 341.68C190.111 341.617 190.388 341.568 190.667 341.531C191.031 341.484 191.327 341.449 191.553 341.426C191.782 341.4 191.949 341.357 192.053 341.297C192.16 341.237 192.213 341.133 192.213 340.984V340.953C192.213 340.568 192.108 340.268 191.897 340.055C191.689 339.841 191.372 339.734 190.948 339.734C190.508 339.734 190.163 339.831 189.913 340.023C189.663 340.216 189.487 340.422 189.385 340.641L188.51 340.328C188.667 339.964 188.875 339.68 189.135 339.477C189.398 339.271 189.685 339.128 189.995 339.047C190.307 338.964 190.614 338.922 190.917 338.922C191.109 338.922 191.331 338.945 191.581 338.992C191.833 339.036 192.077 339.129 192.311 339.27C192.548 339.41 192.745 339.622 192.901 339.906C193.057 340.19 193.135 340.57 193.135 341.047V345H192.213V344.187H192.167C192.104 344.318 192 344.457 191.854 344.605C191.708 344.754 191.514 344.88 191.272 344.984C191.03 345.089 190.734 345.141 190.385 345.141ZM190.526 344.312C190.89 344.312 191.198 344.241 191.448 344.098C191.7 343.954 191.89 343.77 192.018 343.543C192.148 343.316 192.213 343.078 192.213 342.828V341.984C192.174 342.031 192.088 342.074 191.956 342.113C191.825 342.15 191.674 342.182 191.502 342.211C191.333 342.237 191.168 342.26 191.006 342.281C190.847 342.299 190.719 342.315 190.62 342.328C190.38 342.359 190.156 342.41 189.948 342.48C189.742 342.548 189.575 342.651 189.448 342.789C189.323 342.924 189.26 343.109 189.26 343.344C189.26 343.664 189.379 343.906 189.616 344.07C189.855 344.232 190.159 344.312 190.526 344.312ZM197.427 339V339.781H194.318V339H197.427ZM195.224 337.562H196.146V343.281C196.146 343.542 196.184 343.737 196.259 343.867C196.337 343.995 196.436 344.081 196.556 344.125C196.679 344.167 196.807 344.187 196.943 344.187C197.044 344.187 197.128 344.182 197.193 344.172C197.258 344.159 197.31 344.148 197.349 344.141L197.537 344.969C197.474 344.992 197.387 345.016 197.275 345.039C197.163 345.065 197.021 345.078 196.849 345.078C196.589 345.078 196.333 345.022 196.083 344.91C195.836 344.798 195.63 344.628 195.466 344.398C195.305 344.169 195.224 343.88 195.224 343.531V337.562ZM201.265 345.125C200.687 345.125 200.188 344.997 199.769 344.742C199.352 344.484 199.031 344.125 198.804 343.664C198.58 343.201 198.468 342.661 198.468 342.047C198.468 341.432 198.58 340.891 198.804 340.422C199.031 339.951 199.346 339.583 199.75 339.32C200.156 339.055 200.63 338.922 201.171 338.922C201.484 338.922 201.792 338.974 202.097 339.078C202.402 339.182 202.679 339.352 202.929 339.586C203.179 339.818 203.378 340.125 203.527 340.508C203.675 340.891 203.75 341.362 203.75 341.922V342.312H199.125V341.516H202.812C202.812 341.177 202.744 340.875 202.609 340.609C202.476 340.344 202.286 340.134 202.039 339.98C201.794 339.827 201.505 339.75 201.171 339.75C200.804 339.75 200.486 339.841 200.218 340.023C199.953 340.203 199.748 340.437 199.605 340.727C199.462 341.016 199.39 341.326 199.39 341.656V342.188C199.39 342.641 199.468 343.025 199.625 343.34C199.783 343.652 200.003 343.891 200.285 344.055C200.566 344.216 200.893 344.297 201.265 344.297C201.507 344.297 201.726 344.263 201.921 344.195C202.119 344.125 202.29 344.021 202.433 343.883C202.576 343.742 202.687 343.568 202.765 343.359L203.656 343.609C203.562 343.911 203.404 344.177 203.183 344.406C202.962 344.633 202.688 344.81 202.363 344.937C202.037 345.063 201.671 345.125 201.265 345.125ZM207.574 347.375C207.128 347.375 206.746 347.318 206.425 347.203C206.105 347.091 205.838 346.943 205.625 346.758C205.414 346.576 205.246 346.38 205.121 346.172L205.855 345.656C205.938 345.766 206.044 345.891 206.171 346.031C206.299 346.174 206.473 346.298 206.695 346.402C206.919 346.509 207.212 346.562 207.574 346.562C208.058 346.562 208.458 346.445 208.773 346.211C209.088 345.977 209.246 345.609 209.246 345.109V343.891H209.167C209.1 344 209.003 344.135 208.878 344.297C208.756 344.456 208.579 344.598 208.347 344.723C208.118 344.845 207.808 344.906 207.417 344.906C206.933 344.906 206.498 344.792 206.113 344.563C205.73 344.333 205.427 344 205.203 343.562C204.981 343.125 204.871 342.594 204.871 341.969C204.871 341.354 204.979 340.819 205.195 340.363C205.411 339.905 205.712 339.551 206.097 339.301C206.483 339.048 206.928 338.922 207.433 338.922C207.824 338.922 208.134 338.987 208.363 339.117C208.595 339.245 208.772 339.391 208.894 339.555C209.019 339.716 209.115 339.849 209.183 339.953H209.277V339H210.167V345.172C210.167 345.688 210.05 346.107 209.816 346.43C209.584 346.755 209.272 346.993 208.878 347.145C208.488 347.298 208.053 347.375 207.574 347.375ZM207.542 344.078C207.912 344.078 208.225 343.993 208.48 343.824C208.735 343.655 208.929 343.411 209.062 343.094C209.195 342.776 209.261 342.396 209.261 341.953C209.261 341.521 209.196 341.139 209.066 340.809C208.936 340.478 208.743 340.219 208.488 340.031C208.233 339.844 207.917 339.75 207.542 339.75C207.152 339.75 206.826 339.849 206.566 340.047C206.308 340.245 206.114 340.51 205.984 340.844C205.856 341.177 205.792 341.547 205.792 341.953C205.792 342.37 205.858 342.738 205.988 343.059C206.121 343.376 206.316 343.626 206.574 343.809C206.834 343.988 207.157 344.078 207.542 344.078ZM214.292 345.125C213.751 345.125 213.276 344.996 212.867 344.738C212.46 344.48 212.143 344.12 211.914 343.656C211.687 343.193 211.574 342.651 211.574 342.031C211.574 341.406 211.687 340.861 211.914 340.395C212.143 339.928 212.46 339.566 212.867 339.309C213.276 339.051 213.751 338.922 214.292 338.922C214.834 338.922 215.308 339.051 215.714 339.309C216.123 339.566 216.441 339.928 216.667 340.395C216.897 340.861 217.011 341.406 217.011 342.031C217.011 342.651 216.897 343.193 216.667 343.656C216.441 344.12 216.123 344.48 215.714 344.738C215.308 344.996 214.834 345.125 214.292 345.125ZM214.292 344.297C214.704 344.297 215.042 344.191 215.308 343.98C215.574 343.77 215.77 343.492 215.898 343.148C216.026 342.805 216.089 342.432 216.089 342.031C216.089 341.63 216.026 341.257 215.898 340.91C215.77 340.564 215.574 340.284 215.308 340.07C215.042 339.857 214.704 339.75 214.292 339.75C213.881 339.75 213.542 339.857 213.277 340.07C213.011 340.284 212.815 340.564 212.687 340.91C212.559 341.257 212.496 341.63 212.496 342.031C212.496 342.432 212.559 342.805 212.687 343.148C212.815 343.492 213.011 343.77 213.277 343.98C213.542 344.191 213.881 344.297 214.292 344.297ZM218.418 345V339H219.309V339.906H219.372C219.481 339.609 219.679 339.368 219.965 339.184C220.252 338.999 220.575 338.906 220.934 338.906C221.002 338.906 221.086 338.908 221.188 338.91C221.29 338.913 221.366 338.917 221.418 338.922V339.859C221.387 339.852 221.316 339.84 221.204 339.824C221.094 339.806 220.978 339.797 220.856 339.797C220.564 339.797 220.304 339.858 220.075 339.98C219.848 340.1 219.668 340.267 219.536 340.48C219.405 340.691 219.34 340.932 219.34 341.203V345H218.418ZM223.288 347.25C223.131 347.25 222.992 347.237 222.87 347.211C222.747 347.188 222.663 347.164 222.616 347.141L222.85 346.328C223.074 346.385 223.272 346.406 223.444 346.391C223.616 346.375 223.768 346.298 223.901 346.16C224.036 346.025 224.16 345.805 224.272 345.5L224.444 345.031L222.225 339H223.225L224.881 343.781H224.944L226.6 339H227.6L225.053 345.875C224.939 346.185 224.797 346.441 224.627 346.645C224.458 346.85 224.262 347.003 224.038 347.102C223.816 347.201 223.566 347.25 223.288 347.25ZM231.895 345V344.297L234.536 341.406C234.846 341.068 235.101 340.773 235.301 340.523C235.502 340.271 235.65 340.034 235.747 339.812C235.846 339.589 235.895 339.354 235.895 339.109C235.895 338.828 235.827 338.585 235.692 338.379C235.559 338.173 235.377 338.014 235.145 337.902C234.913 337.79 234.653 337.734 234.364 337.734C234.056 337.734 233.788 337.798 233.559 337.926C233.333 338.051 233.157 338.227 233.032 338.453C232.909 338.68 232.848 338.945 232.848 339.25H231.926C231.926 338.781 232.034 338.37 232.25 338.016C232.467 337.661 232.761 337.385 233.133 337.187C233.508 336.99 233.929 336.891 234.395 336.891C234.864 336.891 235.279 336.99 235.641 337.187C236.003 337.385 236.287 337.652 236.493 337.988C236.698 338.324 236.801 338.698 236.801 339.109C236.801 339.404 236.748 339.691 236.641 339.973C236.537 340.251 236.355 340.562 236.094 340.906C235.836 341.247 235.478 341.664 235.02 342.156L233.223 344.078V344.141H236.942V345H231.895Z" fill="#666666"/>
<path d="M282.839 339.5H281.871C281.813 339.221 281.713 338.977 281.57 338.766C281.429 338.555 281.257 338.378 281.054 338.234C280.854 338.089 280.631 337.979 280.386 337.906C280.141 337.833 279.886 337.797 279.621 337.797C279.136 337.797 278.697 337.919 278.304 338.164C277.914 338.409 277.602 338.77 277.371 339.246C277.141 339.723 277.027 340.307 277.027 341C277.027 341.693 277.141 342.277 277.371 342.754C277.602 343.23 277.914 343.591 278.304 343.836C278.697 344.081 279.136 344.203 279.621 344.203C279.886 344.203 280.141 344.167 280.386 344.094C280.631 344.021 280.854 343.913 281.054 343.77C281.257 343.624 281.429 343.445 281.57 343.234C281.713 343.021 281.813 342.776 281.871 342.5H282.839C282.766 342.909 282.634 343.275 282.441 343.598C282.248 343.921 282.009 344.195 281.722 344.422C281.436 344.646 281.114 344.816 280.757 344.934C280.403 345.051 280.024 345.109 279.621 345.109C278.938 345.109 278.332 344.943 277.8 344.609C277.269 344.276 276.851 343.802 276.546 343.187C276.242 342.573 276.089 341.844 276.089 341C276.089 340.156 276.242 339.427 276.546 338.812C276.851 338.198 277.269 337.724 277.8 337.391C278.332 337.057 278.938 336.891 279.621 336.891C280.024 336.891 280.403 336.949 280.757 337.066C281.114 337.184 281.436 337.355 281.722 337.582C282.009 337.806 282.248 338.079 282.441 338.402C282.634 338.723 282.766 339.089 282.839 339.5ZM286.045 345.141C285.665 345.141 285.32 345.069 285.01 344.926C284.7 344.78 284.454 344.57 284.272 344.297C284.09 344.021 283.999 343.687 283.999 343.297C283.999 342.953 284.066 342.674 284.202 342.461C284.337 342.245 284.518 342.076 284.745 341.953C284.971 341.831 285.221 341.74 285.495 341.68C285.771 341.617 286.048 341.568 286.327 341.531C286.691 341.484 286.987 341.449 287.213 341.426C287.443 341.4 287.609 341.357 287.713 341.297C287.82 341.237 287.874 341.133 287.874 340.984V340.953C287.874 340.568 287.768 340.268 287.557 340.055C287.349 339.841 287.032 339.734 286.608 339.734C286.168 339.734 285.823 339.831 285.573 340.023C285.323 340.216 285.147 340.422 285.045 340.641L284.17 340.328C284.327 339.964 284.535 339.68 284.795 339.477C285.058 339.271 285.345 339.128 285.655 339.047C285.967 338.964 286.275 338.922 286.577 338.922C286.769 338.922 286.991 338.945 287.241 338.992C287.493 339.036 287.737 339.129 287.971 339.27C288.208 339.41 288.405 339.622 288.561 339.906C288.717 340.19 288.795 340.57 288.795 341.047V345H287.874V344.187H287.827C287.764 344.318 287.66 344.457 287.514 344.605C287.368 344.754 287.174 344.88 286.932 344.984C286.69 345.089 286.394 345.141 286.045 345.141ZM286.186 344.312C286.551 344.312 286.858 344.241 287.108 344.098C287.361 343.954 287.551 343.77 287.678 343.543C287.808 343.316 287.874 343.078 287.874 342.828V341.984C287.834 342.031 287.749 342.074 287.616 342.113C287.486 342.15 287.334 342.182 287.163 342.211C286.993 342.237 286.828 342.26 286.667 342.281C286.508 342.299 286.379 342.315 286.28 342.328C286.04 342.359 285.816 342.41 285.608 342.48C285.402 342.548 285.236 342.651 285.108 342.789C284.983 342.924 284.92 343.109 284.92 343.344C284.92 343.664 285.039 343.906 285.276 344.07C285.515 344.232 285.819 344.312 286.186 344.312ZM293.087 339V339.781H289.978V339H293.087ZM290.884 337.562H291.806V343.281C291.806 343.542 291.844 343.737 291.919 343.867C291.998 343.995 292.097 344.081 292.216 344.125C292.339 344.167 292.468 344.187 292.603 344.187C292.705 344.187 292.788 344.182 292.853 344.172C292.918 344.159 292.97 344.148 293.009 344.141L293.197 344.969C293.134 344.992 293.047 345.016 292.935 345.039C292.823 345.065 292.681 345.078 292.509 345.078C292.249 345.078 291.994 345.022 291.744 344.91C291.496 344.798 291.291 344.628 291.126 344.398C290.965 344.169 290.884 343.88 290.884 343.531V337.562ZM296.925 345.125C296.347 345.125 295.848 344.997 295.429 344.742C295.013 344.484 294.691 344.125 294.464 343.664C294.24 343.201 294.128 342.661 294.128 342.047C294.128 341.432 294.24 340.891 294.464 340.422C294.691 339.951 295.006 339.583 295.41 339.32C295.816 339.055 296.29 338.922 296.832 338.922C297.144 338.922 297.453 338.974 297.757 339.078C298.062 339.182 298.339 339.352 298.589 339.586C298.839 339.818 299.039 340.125 299.187 340.508C299.335 340.891 299.41 341.362 299.41 341.922V342.312H294.785V341.516H298.472C298.472 341.177 298.404 340.875 298.269 340.609C298.136 340.344 297.946 340.134 297.699 339.98C297.454 339.827 297.165 339.75 296.832 339.75C296.464 339.75 296.147 339.841 295.878 340.023C295.613 340.203 295.408 340.437 295.265 340.727C295.122 341.016 295.05 341.326 295.05 341.656V342.188C295.05 342.641 295.128 343.025 295.285 343.34C295.444 343.652 295.664 343.891 295.945 344.055C296.226 344.216 296.553 344.297 296.925 344.297C297.167 344.297 297.386 344.263 297.582 344.195C297.779 344.125 297.95 344.021 298.093 343.883C298.236 343.742 298.347 343.568 298.425 343.359L299.316 343.609C299.222 343.911 299.065 344.177 298.843 344.406C298.622 344.633 298.348 344.81 298.023 344.937C297.697 345.063 297.332 345.125 296.925 345.125ZM303.234 347.375C302.789 347.375 302.406 347.318 302.085 347.203C301.765 347.091 301.498 346.943 301.285 346.758C301.074 346.576 300.906 346.38 300.781 346.172L301.515 345.656C301.598 345.766 301.704 345.891 301.832 346.031C301.959 346.174 302.134 346.298 302.355 346.402C302.579 346.509 302.872 346.562 303.234 346.562C303.718 346.562 304.118 346.445 304.433 346.211C304.748 345.977 304.906 345.609 304.906 345.109V343.891H304.828C304.76 344 304.664 344.135 304.539 344.297C304.416 344.456 304.239 344.598 304.007 344.723C303.778 344.845 303.468 344.906 303.078 344.906C302.593 344.906 302.158 344.792 301.773 344.563C301.39 344.333 301.087 344 300.863 343.562C300.641 343.125 300.531 342.594 300.531 341.969C300.531 341.354 300.639 340.819 300.855 340.363C301.071 339.905 301.372 339.551 301.757 339.301C302.143 339.048 302.588 338.922 303.093 338.922C303.484 338.922 303.794 338.987 304.023 339.117C304.255 339.245 304.432 339.391 304.554 339.555C304.679 339.716 304.776 339.849 304.843 339.953H304.937V339H305.828V345.172C305.828 345.688 305.71 346.107 305.476 346.43C305.244 346.755 304.932 346.993 304.539 347.145C304.148 347.298 303.713 347.375 303.234 347.375ZM303.203 344.078C303.572 344.078 303.885 343.993 304.14 343.824C304.395 343.655 304.589 343.411 304.722 343.094C304.855 342.776 304.921 342.396 304.921 341.953C304.921 341.521 304.856 341.139 304.726 340.809C304.596 340.478 304.403 340.219 304.148 340.031C303.893 339.844 303.578 339.75 303.203 339.75C302.812 339.75 302.486 339.849 302.226 340.047C301.968 340.245 301.774 340.51 301.644 340.844C301.516 341.177 301.453 341.547 301.453 341.953C301.453 342.37 301.518 342.738 301.648 343.059C301.781 343.376 301.976 343.626 302.234 343.809C302.494 343.988 302.817 344.078 303.203 344.078ZM309.953 345.125C309.411 345.125 308.936 344.996 308.527 344.738C308.121 344.48 307.803 344.12 307.574 343.656C307.347 343.193 307.234 342.651 307.234 342.031C307.234 341.406 307.347 340.861 307.574 340.395C307.803 339.928 308.121 339.566 308.527 339.309C308.936 339.051 309.411 338.922 309.953 338.922C310.494 338.922 310.968 339.051 311.375 339.309C311.783 339.566 312.101 339.928 312.328 340.395C312.557 340.861 312.671 341.406 312.671 342.031C312.671 342.651 312.557 343.193 312.328 343.656C312.101 344.12 311.783 344.48 311.375 344.738C310.968 344.996 310.494 345.125 309.953 345.125ZM309.953 344.297C310.364 344.297 310.703 344.191 310.968 343.98C311.234 343.77 311.431 343.492 311.558 343.148C311.686 342.805 311.75 342.432 311.75 342.031C311.75 341.63 311.686 341.257 311.558 340.91C311.431 340.564 311.234 340.284 310.968 340.07C310.703 339.857 310.364 339.75 309.953 339.75C309.541 339.75 309.203 339.857 308.937 340.07C308.671 340.284 308.475 340.564 308.347 340.91C308.22 341.257 308.156 341.63 308.156 342.031C308.156 342.432 308.22 342.805 308.347 343.148C308.475 343.492 308.671 343.77 308.937 343.98C309.203 344.191 309.541 344.297 309.953 344.297ZM314.079 345V339H314.969V339.906H315.032C315.141 339.609 315.339 339.368 315.625 339.184C315.912 338.999 316.235 338.906 316.594 338.906C316.662 338.906 316.747 338.908 316.848 338.91C316.95 338.913 317.027 338.917 317.079 338.922V339.859C317.047 339.852 316.976 339.84 316.864 339.824C316.754 339.806 316.639 339.797 316.516 339.797C316.224 339.797 315.964 339.858 315.735 339.98C315.508 340.1 315.329 340.267 315.196 340.48C315.066 340.691 315 340.932 315 341.203V345H314.079ZM318.948 347.25C318.792 347.25 318.652 347.237 318.53 347.211C318.407 347.188 318.323 347.164 318.276 347.141L318.51 346.328C318.734 346.385 318.932 346.406 319.104 346.391C319.276 346.375 319.428 346.298 319.561 346.16C319.696 346.025 319.82 345.805 319.932 345.5L320.104 345.031L317.885 339H318.885L320.542 343.781H320.604L322.26 339H323.26L320.713 345.875C320.599 346.185 320.457 346.441 320.288 346.645C320.118 346.85 319.922 347.003 319.698 347.102C319.476 347.201 319.226 347.25 318.948 347.25ZM330.258 345.109C329.743 345.109 329.283 345.021 328.879 344.844C328.478 344.667 328.159 344.421 327.922 344.105C327.688 343.788 327.56 343.419 327.54 343H328.524C328.545 343.258 328.633 343.48 328.79 343.668C328.946 343.853 329.15 343.996 329.403 344.098C329.655 344.199 329.935 344.25 330.243 344.25C330.586 344.25 330.891 344.19 331.157 344.07C331.422 343.951 331.631 343.784 331.782 343.57C331.933 343.357 332.008 343.109 332.008 342.828C332.008 342.534 331.935 342.275 331.79 342.051C331.644 341.824 331.43 341.647 331.149 341.52C330.868 341.392 330.524 341.328 330.118 341.328H329.477V340.469H330.118C330.435 340.469 330.714 340.411 330.954 340.297C331.196 340.182 331.385 340.021 331.52 339.812C331.658 339.604 331.727 339.359 331.727 339.078C331.727 338.807 331.667 338.572 331.547 338.371C331.428 338.171 331.258 338.014 331.04 337.902C330.823 337.79 330.568 337.734 330.274 337.734C329.998 337.734 329.737 337.785 329.493 337.887C329.25 337.986 329.053 338.13 328.899 338.32C328.745 338.508 328.662 338.734 328.649 339H327.711C327.727 338.581 327.853 338.214 328.09 337.898C328.327 337.581 328.637 337.333 329.02 337.156C329.405 336.979 329.829 336.891 330.29 336.891C330.784 336.891 331.209 336.991 331.563 337.191C331.917 337.389 332.189 337.651 332.379 337.977C332.569 338.302 332.665 338.654 332.665 339.031C332.665 339.482 332.546 339.866 332.309 340.184C332.075 340.501 331.756 340.721 331.352 340.844V340.906C331.857 340.99 332.252 341.204 332.536 341.551C332.819 341.895 332.961 342.32 332.961 342.828C332.961 343.263 332.843 343.654 332.606 344C332.372 344.344 332.051 344.615 331.645 344.812C331.239 345.01 330.777 345.109 330.258 345.109Z" fill="#666666"/>
<path d="M378.646 339.5H377.678C377.62 339.221 377.52 338.977 377.377 338.766C377.236 338.555 377.064 338.378 376.861 338.234C376.661 338.089 376.438 337.979 376.193 337.906C375.949 337.833 375.693 337.797 375.428 337.797C374.943 337.797 374.505 337.919 374.111 338.164C373.721 338.409 373.41 338.77 373.178 339.246C372.949 339.723 372.834 340.307 372.834 341C372.834 341.693 372.949 342.277 373.178 342.754C373.41 343.23 373.721 343.591 374.111 343.836C374.505 344.081 374.943 344.203 375.428 344.203C375.693 344.203 375.949 344.167 376.193 344.094C376.438 344.021 376.661 343.913 376.861 343.77C377.064 343.624 377.236 343.445 377.377 343.234C377.52 343.021 377.62 342.776 377.678 342.5H378.646C378.574 342.909 378.441 343.275 378.248 343.598C378.055 343.921 377.816 344.195 377.529 344.422C377.243 344.646 376.921 344.816 376.564 344.934C376.21 345.051 375.831 345.109 375.428 345.109C374.745 345.109 374.139 344.943 373.607 344.609C373.076 344.276 372.658 343.802 372.354 343.187C372.049 342.573 371.896 341.844 371.896 341C371.896 340.156 372.049 339.427 372.354 338.812C372.658 338.198 373.076 337.724 373.607 337.391C374.139 337.057 374.745 336.891 375.428 336.891C375.831 336.891 376.21 336.949 376.564 337.066C376.921 337.184 377.243 337.355 377.529 337.582C377.816 337.806 378.055 338.079 378.248 338.402C378.441 338.723 378.574 339.089 378.646 339.5ZM381.853 345.141C381.472 345.141 381.127 345.069 380.817 344.926C380.507 344.78 380.261 344.57 380.079 344.297C379.897 344.021 379.806 343.687 379.806 343.297C379.806 342.953 379.873 342.674 380.009 342.461C380.144 342.245 380.325 342.076 380.552 341.953C380.778 341.831 381.028 341.74 381.302 341.68C381.578 341.617 381.855 341.568 382.134 341.531C382.498 341.484 382.794 341.449 383.021 341.426C383.25 341.4 383.416 341.357 383.521 341.297C383.627 341.237 383.681 341.133 383.681 340.984V340.953C383.681 340.568 383.575 340.268 383.364 340.055C383.156 339.841 382.84 339.734 382.415 339.734C381.975 339.734 381.63 339.831 381.38 340.023C381.13 340.216 380.954 340.422 380.853 340.641L379.978 340.328C380.134 339.964 380.342 339.68 380.603 339.477C380.866 339.271 381.152 339.128 381.462 339.047C381.774 338.964 382.082 338.922 382.384 338.922C382.576 338.922 382.798 338.945 383.048 338.992C383.3 339.036 383.544 339.129 383.778 339.27C384.015 339.41 384.212 339.622 384.368 339.906C384.524 340.19 384.603 340.57 384.603 341.047V345H383.681V344.187H383.634C383.571 344.318 383.467 344.457 383.321 344.605C383.175 344.754 382.981 344.88 382.739 344.984C382.497 345.089 382.201 345.141 381.853 345.141ZM381.993 344.312C382.358 344.312 382.665 344.241 382.915 344.098C383.168 343.954 383.358 343.77 383.485 343.543C383.616 343.316 383.681 343.078 383.681 342.828V341.984C383.642 342.031 383.556 342.074 383.423 342.113C383.293 342.15 383.142 342.182 382.97 342.211C382.8 342.237 382.635 342.26 382.474 342.281C382.315 342.299 382.186 342.315 382.087 342.328C381.847 342.359 381.623 342.41 381.415 342.48C381.209 342.548 381.043 342.651 380.915 342.789C380.79 342.924 380.728 343.109 380.728 343.344C380.728 343.664 380.846 343.906 381.083 344.07C381.323 344.232 381.626 344.312 381.993 344.312ZM388.895 339V339.781H385.785V339H388.895ZM386.691 337.562H387.613V343.281C387.613 343.542 387.651 343.737 387.727 343.867C387.805 343.995 387.904 344.081 388.023 344.125C388.146 344.167 388.275 344.187 388.41 344.187C388.512 344.187 388.595 344.182 388.66 344.172C388.725 344.159 388.777 344.148 388.816 344.141L389.004 344.969C388.941 344.992 388.854 345.016 388.742 345.039C388.63 345.065 388.488 345.078 388.316 345.078C388.056 345.078 387.801 345.022 387.551 344.91C387.303 344.798 387.098 344.628 386.934 344.398C386.772 344.169 386.691 343.88 386.691 343.531V337.562ZM392.732 345.125C392.154 345.125 391.656 344.997 391.236 344.742C390.82 344.484 390.498 344.125 390.271 343.664C390.048 343.201 389.936 342.661 389.936 342.047C389.936 341.432 390.048 340.891 390.271 340.422C390.498 339.951 390.813 339.583 391.217 339.32C391.623 339.055 392.097 338.922 392.639 338.922C392.951 338.922 393.26 338.974 393.564 339.078C393.869 339.182 394.146 339.352 394.396 339.586C394.646 339.818 394.846 340.125 394.994 340.508C395.143 340.891 395.217 341.362 395.217 341.922V342.312H390.592V341.516H394.279C394.279 341.177 394.212 340.875 394.076 340.609C393.943 340.344 393.753 340.134 393.506 339.98C393.261 339.827 392.972 339.75 392.639 339.75C392.271 339.75 391.954 339.841 391.686 340.023C391.42 340.203 391.215 340.437 391.072 340.727C390.929 341.016 390.857 341.326 390.857 341.656V342.188C390.857 342.641 390.936 343.025 391.092 343.34C391.251 343.652 391.471 343.891 391.752 344.055C392.033 344.216 392.36 344.297 392.732 344.297C392.975 344.297 393.193 344.263 393.389 344.195C393.587 344.125 393.757 344.021 393.9 343.883C394.044 343.742 394.154 343.568 394.232 343.359L395.123 343.609C395.029 343.911 394.872 344.177 394.65 344.406C394.429 344.633 394.156 344.81 393.83 344.937C393.505 345.063 393.139 345.125 392.732 345.125ZM399.041 347.375C398.596 347.375 398.213 347.318 397.893 347.203C397.572 347.091 397.305 346.943 397.092 346.758C396.881 346.576 396.713 346.38 396.588 346.172L397.322 345.656C397.406 345.766 397.511 345.891 397.639 346.031C397.766 346.174 397.941 346.298 398.162 346.402C398.386 346.509 398.679 346.562 399.041 346.562C399.525 346.562 399.925 346.445 400.24 346.211C400.555 345.977 400.713 345.609 400.713 345.109V343.891H400.635C400.567 344 400.471 344.135 400.346 344.297C400.223 344.456 400.046 344.598 399.814 344.723C399.585 344.845 399.275 344.906 398.885 344.906C398.4 344.906 397.965 344.792 397.58 344.563C397.197 344.333 396.894 344 396.67 343.562C396.449 343.125 396.338 342.594 396.338 341.969C396.338 341.354 396.446 340.819 396.662 340.363C396.878 339.905 397.179 339.551 397.564 339.301C397.95 339.048 398.395 338.922 398.9 338.922C399.291 338.922 399.601 338.987 399.83 339.117C400.062 339.245 400.239 339.391 400.361 339.555C400.486 339.716 400.583 339.849 400.65 339.953H400.744V339H401.635V345.172C401.635 345.688 401.518 346.107 401.283 346.43C401.051 346.755 400.739 346.993 400.346 347.145C399.955 347.298 399.52 347.375 399.041 347.375ZM399.01 344.078C399.38 344.078 399.692 343.993 399.947 343.824C400.202 343.655 400.396 343.411 400.529 343.094C400.662 342.776 400.729 342.396 400.729 341.953C400.729 341.521 400.663 341.139 400.533 340.809C400.403 340.478 400.21 340.219 399.955 340.031C399.7 339.844 399.385 339.75 399.01 339.75C398.619 339.75 398.294 339.849 398.033 340.047C397.775 340.245 397.581 340.51 397.451 340.844C397.324 341.177 397.26 341.547 397.26 341.953C397.26 342.37 397.325 342.738 397.455 343.059C397.588 343.376 397.783 343.626 398.041 343.809C398.301 343.988 398.624 344.078 399.01 344.078ZM405.76 345.125C405.218 345.125 404.743 344.996 404.334 344.738C403.928 344.48 403.61 344.12 403.381 343.656C403.154 343.193 403.041 342.651 403.041 342.031C403.041 341.406 403.154 340.861 403.381 340.395C403.61 339.928 403.928 339.566 404.334 339.309C404.743 339.051 405.218 338.922 405.76 338.922C406.301 338.922 406.775 339.051 407.182 339.309C407.59 339.566 407.908 339.928 408.135 340.395C408.364 340.861 408.479 341.406 408.479 342.031C408.479 342.651 408.364 343.193 408.135 343.656C407.908 344.12 407.59 344.48 407.182 344.738C406.775 344.996 406.301 345.125 405.76 345.125ZM405.76 344.297C406.171 344.297 406.51 344.191 406.775 343.98C407.041 343.77 407.238 343.492 407.365 343.148C407.493 342.805 407.557 342.432 407.557 342.031C407.557 341.63 407.493 341.257 407.365 340.91C407.238 340.564 407.041 340.284 406.775 340.07C406.51 339.857 406.171 339.75 405.76 339.75C405.348 339.75 405.01 339.857 404.744 340.07C404.479 340.284 404.282 340.564 404.154 340.91C404.027 341.257 403.963 341.63 403.963 342.031C403.963 342.432 404.027 342.805 404.154 343.148C404.282 343.492 404.479 343.77 404.744 343.98C405.01 344.191 405.348 344.297 405.76 344.297ZM409.886 345V339H410.776V339.906H410.839C410.948 339.609 411.146 339.368 411.433 339.184C411.719 338.999 412.042 338.906 412.401 338.906C412.469 338.906 412.554 338.908 412.655 338.91C412.757 338.913 412.834 338.917 412.886 338.922V339.859C412.854 339.852 412.783 339.84 412.671 339.824C412.562 339.806 412.446 339.797 412.323 339.797C412.032 339.797 411.771 339.858 411.542 339.98C411.315 340.1 411.136 340.267 411.003 340.48C410.873 340.691 410.808 340.932 410.808 341.203V345H409.886ZM414.755 347.25C414.599 347.25 414.459 347.237 414.337 347.211C414.215 347.188 414.13 347.164 414.083 347.141L414.317 346.328C414.541 346.385 414.739 346.406 414.911 346.391C415.083 346.375 415.235 346.298 415.368 346.16C415.504 346.025 415.627 345.805 415.739 345.5L415.911 345.031L413.692 339H414.692L416.349 343.781H416.411L418.067 339H419.067L416.521 345.875C416.406 346.185 416.264 346.441 416.095 346.645C415.925 346.85 415.729 347.003 415.505 347.102C415.284 347.201 415.034 347.25 414.755 347.25ZM423.175 343.359V342.562L426.69 337H427.269V338.234H426.878L424.222 342.437V342.5H428.956V343.359H423.175ZM426.94 345V343.117V342.746V337H427.862V345H426.94Z" fill="#666666"/>
<path d="M474.663 339.5H473.694C473.637 339.221 473.537 338.977 473.394 338.766C473.253 338.555 473.081 338.378 472.878 338.234C472.677 338.089 472.455 337.979 472.21 337.906C471.965 337.833 471.71 337.797 471.444 337.797C470.96 337.797 470.521 337.919 470.128 338.164C469.737 338.409 469.426 338.77 469.194 339.246C468.965 339.723 468.851 340.307 468.851 341C468.851 341.693 468.965 342.277 469.194 342.754C469.426 343.23 469.737 343.591 470.128 343.836C470.521 344.081 470.96 344.203 471.444 344.203C471.71 344.203 471.965 344.167 472.21 344.094C472.455 344.021 472.677 343.913 472.878 343.77C473.081 343.624 473.253 343.445 473.394 343.234C473.537 343.021 473.637 342.776 473.694 342.5H474.663C474.59 342.909 474.457 343.275 474.265 343.598C474.072 343.921 473.832 344.195 473.546 344.422C473.259 344.646 472.938 344.816 472.581 344.934C472.227 345.051 471.848 345.109 471.444 345.109C470.762 345.109 470.155 344.943 469.624 344.609C469.093 344.276 468.675 343.802 468.37 343.187C468.065 342.573 467.913 341.844 467.913 341C467.913 340.156 468.065 339.427 468.37 338.812C468.675 338.198 469.093 337.724 469.624 337.391C470.155 337.057 470.762 336.891 471.444 336.891C471.848 336.891 472.227 336.949 472.581 337.066C472.938 337.184 473.259 337.355 473.546 337.582C473.832 337.806 474.072 338.079 474.265 338.402C474.457 338.723 474.59 339.089 474.663 339.5ZM477.869 345.141C477.489 345.141 477.144 345.069 476.834 344.926C476.524 344.78 476.278 344.57 476.096 344.297C475.913 344.021 475.822 343.687 475.822 343.297C475.822 342.953 475.89 342.674 476.025 342.461C476.161 342.245 476.342 342.076 476.568 341.953C476.795 341.831 477.045 341.74 477.318 341.68C477.594 341.617 477.872 341.568 478.15 341.531C478.515 341.484 478.811 341.449 479.037 341.426C479.266 341.4 479.433 341.357 479.537 341.297C479.644 341.237 479.697 341.133 479.697 340.984V340.953C479.697 340.568 479.592 340.268 479.381 340.055C479.173 339.841 478.856 339.734 478.432 339.734C477.992 339.734 477.646 339.831 477.396 340.023C477.146 340.216 476.971 340.422 476.869 340.641L475.994 340.328C476.15 339.964 476.359 339.68 476.619 339.477C476.882 339.271 477.169 339.128 477.479 339.047C477.791 338.964 478.098 338.922 478.4 338.922C478.593 338.922 478.814 338.945 479.064 338.992C479.317 339.036 479.561 339.129 479.795 339.27C480.032 339.41 480.229 339.622 480.385 339.906C480.541 340.19 480.619 340.57 480.619 341.047V345H479.697V344.187H479.65C479.588 344.318 479.484 344.457 479.338 344.605C479.192 344.754 478.998 344.88 478.756 344.984C478.514 345.089 478.218 345.141 477.869 345.141ZM478.01 344.312C478.374 344.312 478.682 344.241 478.932 344.098C479.184 343.954 479.374 343.77 479.502 343.543C479.632 343.316 479.697 343.078 479.697 342.828V341.984C479.658 342.031 479.572 342.074 479.439 342.113C479.309 342.15 479.158 342.182 478.986 342.211C478.817 342.237 478.652 342.26 478.49 342.281C478.331 342.299 478.202 342.315 478.104 342.328C477.864 342.359 477.64 342.41 477.432 342.48C477.226 342.548 477.059 342.651 476.932 342.789C476.807 342.924 476.744 343.109 476.744 343.344C476.744 343.664 476.863 343.906 477.1 344.07C477.339 344.232 477.643 344.312 478.01 344.312ZM484.911 339V339.781H481.802V339H484.911ZM482.708 337.562H483.63V343.281C483.63 343.542 483.668 343.737 483.743 343.867C483.821 343.995 483.92 344.081 484.04 344.125C484.162 344.167 484.291 344.187 484.427 344.187C484.528 344.187 484.612 344.182 484.677 344.172C484.742 344.159 484.794 344.148 484.833 344.141L485.021 344.969C484.958 344.992 484.871 345.016 484.759 345.039C484.647 345.065 484.505 345.078 484.333 345.078C484.073 345.078 483.817 345.022 483.567 344.91C483.32 344.798 483.114 344.628 482.95 344.398C482.789 344.169 482.708 343.88 482.708 343.531V337.562ZM488.749 345.125C488.171 345.125 487.672 344.997 487.253 344.742C486.836 344.484 486.515 344.125 486.288 343.664C486.064 343.201 485.952 342.661 485.952 342.047C485.952 341.432 486.064 340.891 486.288 340.422C486.515 339.951 486.83 339.583 487.233 339.32C487.64 339.055 488.114 338.922 488.655 338.922C488.968 338.922 489.276 338.974 489.581 339.078C489.886 339.182 490.163 339.352 490.413 339.586C490.663 339.818 490.862 340.125 491.011 340.508C491.159 340.891 491.233 341.362 491.233 341.922V342.312H486.608V341.516H490.296C490.296 341.177 490.228 340.875 490.093 340.609C489.96 340.344 489.77 340.134 489.522 339.98C489.278 339.827 488.989 339.75 488.655 339.75C488.288 339.75 487.97 339.841 487.702 340.023C487.437 340.203 487.232 340.437 487.089 340.727C486.946 341.016 486.874 341.326 486.874 341.656V342.188C486.874 342.641 486.952 343.025 487.108 343.34C487.267 343.652 487.487 343.891 487.769 344.055C488.05 344.216 488.377 344.297 488.749 344.297C488.991 344.297 489.21 344.263 489.405 344.195C489.603 344.125 489.774 344.021 489.917 343.883C490.06 343.742 490.171 343.568 490.249 343.359L491.14 343.609C491.046 343.911 490.888 344.177 490.667 344.406C490.446 344.633 490.172 344.81 489.847 344.937C489.521 345.063 489.155 345.125 488.749 345.125ZM495.058 347.375C494.612 347.375 494.229 347.318 493.909 347.203C493.589 347.091 493.322 346.943 493.108 346.758C492.897 346.576 492.729 346.38 492.604 346.172L493.339 345.656C493.422 345.766 493.528 345.891 493.655 346.031C493.783 346.174 493.957 346.298 494.179 346.402C494.403 346.509 494.696 346.562 495.058 346.562C495.542 346.562 495.942 346.445 496.257 346.211C496.572 345.977 496.729 345.609 496.729 345.109V343.891H496.651C496.584 344 496.487 344.135 496.362 344.297C496.24 344.456 496.063 344.598 495.831 344.723C495.602 344.845 495.292 344.906 494.901 344.906C494.417 344.906 493.982 344.792 493.597 344.563C493.214 344.333 492.91 344 492.687 343.562C492.465 343.125 492.354 342.594 492.354 341.969C492.354 341.354 492.463 340.819 492.679 340.363C492.895 339.905 493.196 339.551 493.581 339.301C493.966 339.048 494.412 338.922 494.917 338.922C495.308 338.922 495.618 338.987 495.847 339.117C496.078 339.245 496.256 339.391 496.378 339.555C496.503 339.716 496.599 339.849 496.667 339.953H496.761V339H497.651V345.172C497.651 345.688 497.534 346.107 497.3 346.43C497.068 346.755 496.756 346.993 496.362 347.145C495.972 347.298 495.537 347.375 495.058 347.375ZM495.026 344.078C495.396 344.078 495.709 343.993 495.964 343.824C496.219 343.655 496.413 343.411 496.546 343.094C496.679 342.776 496.745 342.396 496.745 341.953C496.745 341.521 496.68 341.139 496.55 340.809C496.42 340.478 496.227 340.219 495.972 340.031C495.716 339.844 495.401 339.75 495.026 339.75C494.636 339.75 494.31 339.849 494.05 340.047C493.792 340.245 493.598 340.51 493.468 340.844C493.34 341.177 493.276 341.547 493.276 341.953C493.276 342.37 493.341 342.738 493.472 343.059C493.604 343.376 493.8 343.626 494.058 343.809C494.318 343.988 494.641 344.078 495.026 344.078ZM501.776 345.125C501.235 345.125 500.759 344.996 500.351 344.738C499.944 344.48 499.627 344.12 499.397 343.656C499.171 343.193 499.058 342.651 499.058 342.031C499.058 341.406 499.171 340.861 499.397 340.395C499.627 339.928 499.944 339.566 500.351 339.309C500.759 339.051 501.235 338.922 501.776 338.922C502.318 338.922 502.792 339.051 503.198 339.309C503.607 339.566 503.925 339.928 504.151 340.395C504.381 340.861 504.495 341.406 504.495 342.031C504.495 342.651 504.381 343.193 504.151 343.656C503.925 344.12 503.607 344.48 503.198 344.738C502.792 344.996 502.318 345.125 501.776 345.125ZM501.776 344.297C502.188 344.297 502.526 344.191 502.792 343.98C503.058 343.77 503.254 343.492 503.382 343.148C503.509 342.805 503.573 342.432 503.573 342.031C503.573 341.63 503.509 341.257 503.382 340.91C503.254 340.564 503.058 340.284 502.792 340.07C502.526 339.857 502.188 339.75 501.776 339.75C501.365 339.75 501.026 339.857 500.761 340.07C500.495 340.284 500.299 340.564 500.171 340.91C500.043 341.257 499.979 341.63 499.979 342.031C499.979 342.432 500.043 342.805 500.171 343.148C500.299 343.492 500.495 343.77 500.761 343.98C501.026 344.191 501.365 344.297 501.776 344.297ZM505.902 345V339H506.793V339.906H506.855C506.965 339.609 507.163 339.368 507.449 339.184C507.736 338.999 508.059 338.906 508.418 338.906C508.486 338.906 508.57 338.908 508.672 338.91C508.773 338.913 508.85 338.917 508.902 338.922V339.859C508.871 339.852 508.799 339.84 508.688 339.824C508.578 339.806 508.462 339.797 508.34 339.797C508.048 339.797 507.788 339.858 507.559 339.98C507.332 340.1 507.152 340.267 507.02 340.48C506.889 340.691 506.824 340.932 506.824 341.203V345H505.902ZM510.771 347.25C510.615 347.25 510.476 347.237 510.354 347.211C510.231 347.188 510.146 347.164 510.1 347.141L510.334 346.328C510.558 346.385 510.756 346.406 510.928 346.391C511.1 346.375 511.252 346.298 511.385 346.16C511.52 346.025 511.644 345.805 511.756 345.5L511.928 345.031L509.709 339H510.709L512.365 343.781H512.428L514.084 339H515.084L512.537 345.875C512.423 346.185 512.281 346.441 512.111 346.645C511.942 346.85 511.745 347.003 511.521 347.102C511.3 347.201 511.05 347.25 510.771 347.25ZM521.879 345.109C521.421 345.109 521.008 345.018 520.641 344.836C520.273 344.654 519.979 344.404 519.758 344.086C519.536 343.768 519.415 343.406 519.395 343H520.332C520.368 343.362 520.533 343.661 520.824 343.898C521.118 344.133 521.47 344.25 521.879 344.25C522.207 344.25 522.499 344.173 522.754 344.02C523.012 343.866 523.214 343.655 523.359 343.387C523.508 343.116 523.582 342.81 523.582 342.469C523.582 342.12 523.505 341.809 523.352 341.535C523.201 341.259 522.992 341.042 522.727 340.883C522.461 340.724 522.158 340.643 521.816 340.641C521.572 340.638 521.32 340.676 521.063 340.754C520.805 340.829 520.592 340.927 520.426 341.047L519.52 340.937L520.004 337H524.16V337.859H520.816L520.535 340.219H520.582C520.746 340.089 520.952 339.98 521.199 339.895C521.447 339.809 521.704 339.766 521.973 339.766C522.462 339.766 522.898 339.883 523.281 340.117C523.667 340.349 523.969 340.667 524.188 341.07C524.409 341.474 524.52 341.935 524.52 342.453C524.52 342.964 524.405 343.419 524.176 343.82C523.949 344.219 523.637 344.534 523.238 344.766C522.84 344.995 522.387 345.109 521.879 345.109Z" fill="#666666"/>
<path d="M570.409 339.5H569.44C569.383 339.221 569.283 338.977 569.14 338.766C568.999 338.555 568.827 338.378 568.624 338.234C568.424 338.089 568.201 337.979 567.956 337.906C567.711 337.833 567.456 337.797 567.19 337.797C566.706 337.797 566.267 337.919 565.874 338.164C565.483 338.409 565.172 338.77 564.94 339.246C564.711 339.723 564.597 340.307 564.597 341C564.597 341.693 564.711 342.277 564.94 342.754C565.172 343.23 565.483 343.591 565.874 343.836C566.267 344.081 566.706 344.203 567.19 344.203C567.456 344.203 567.711 344.167 567.956 344.094C568.201 344.021 568.424 343.913 568.624 343.77C568.827 343.624 568.999 343.445 569.14 343.234C569.283 343.021 569.383 342.776 569.44 342.5H570.409C570.336 342.909 570.203 343.275 570.011 343.598C569.818 343.921 569.578 344.195 569.292 344.422C569.006 344.646 568.684 344.816 568.327 344.934C567.973 345.051 567.594 345.109 567.19 345.109C566.508 345.109 565.901 344.943 565.37 344.609C564.839 344.276 564.421 343.802 564.116 343.187C563.812 342.573 563.659 341.844 563.659 341C563.659 340.156 563.812 339.427 564.116 338.812C564.421 338.198 564.839 337.724 565.37 337.391C565.901 337.057 566.508 336.891 567.19 336.891C567.594 336.891 567.973 336.949 568.327 337.066C568.684 337.184 569.006 337.355 569.292 337.582C569.578 337.806 569.818 338.079 570.011 338.402C570.203 338.723 570.336 339.089 570.409 339.5ZM573.615 345.141C573.235 345.141 572.89 345.069 572.58 344.926C572.27 344.78 572.024 344.57 571.842 344.297C571.66 344.021 571.568 343.687 571.568 343.297C571.568 342.953 571.636 342.674 571.771 342.461C571.907 342.245 572.088 342.076 572.314 341.953C572.541 341.831 572.791 341.74 573.064 341.68C573.34 341.617 573.618 341.568 573.896 341.531C574.261 341.484 574.557 341.449 574.783 341.426C575.012 341.4 575.179 341.357 575.283 341.297C575.39 341.237 575.443 341.133 575.443 340.984V340.953C575.443 340.568 575.338 340.268 575.127 340.055C574.919 339.841 574.602 339.734 574.178 339.734C573.738 339.734 573.393 339.831 573.143 340.023C572.893 340.216 572.717 340.422 572.615 340.641L571.74 340.328C571.896 339.964 572.105 339.68 572.365 339.477C572.628 339.271 572.915 339.128 573.225 339.047C573.537 338.964 573.844 338.922 574.146 338.922C574.339 338.922 574.561 338.945 574.811 338.992C575.063 339.036 575.307 339.129 575.541 339.27C575.778 339.41 575.975 339.622 576.131 339.906C576.287 340.19 576.365 340.57 576.365 341.047V345H575.443V344.187H575.396C575.334 344.318 575.23 344.457 575.084 344.605C574.938 344.754 574.744 344.88 574.502 344.984C574.26 345.089 573.964 345.141 573.615 345.141ZM573.756 344.312C574.12 344.312 574.428 344.241 574.678 344.098C574.93 343.954 575.12 343.77 575.248 343.543C575.378 343.316 575.443 343.078 575.443 342.828V341.984C575.404 342.031 575.318 342.074 575.186 342.113C575.055 342.15 574.904 342.182 574.732 342.211C574.563 342.237 574.398 342.26 574.236 342.281C574.077 342.299 573.949 342.315 573.85 342.328C573.61 342.359 573.386 342.41 573.178 342.48C572.972 342.548 572.805 342.651 572.678 342.789C572.553 342.924 572.49 343.109 572.49 343.344C572.49 343.664 572.609 343.906 572.846 344.07C573.085 344.232 573.389 344.312 573.756 344.312ZM580.657 339V339.781H577.548V339H580.657ZM578.454 337.562H579.376V343.281C579.376 343.542 579.414 343.737 579.489 343.867C579.567 343.995 579.666 344.081 579.786 344.125C579.909 344.167 580.037 344.187 580.173 344.187C580.274 344.187 580.358 344.182 580.423 344.172C580.488 344.159 580.54 344.148 580.579 344.141L580.767 344.969C580.704 344.992 580.617 345.016 580.505 345.039C580.393 345.065 580.251 345.078 580.079 345.078C579.819 345.078 579.563 345.022 579.313 344.91C579.066 344.798 578.86 344.628 578.696 344.398C578.535 344.169 578.454 343.88 578.454 343.531V337.562ZM584.495 345.125C583.917 345.125 583.418 344.997 582.999 344.742C582.582 344.484 582.261 344.125 582.034 343.664C581.81 343.201 581.698 342.661 581.698 342.047C581.698 341.432 581.81 340.891 582.034 340.422C582.261 339.951 582.576 339.583 582.979 339.32C583.386 339.055 583.86 338.922 584.401 338.922C584.714 338.922 585.022 338.974 585.327 339.078C585.632 339.182 585.909 339.352 586.159 339.586C586.409 339.818 586.608 340.125 586.757 340.508C586.905 340.891 586.979 341.362 586.979 341.922V342.312H582.354V341.516H586.042C586.042 341.177 585.974 340.875 585.839 340.609C585.706 340.344 585.516 340.134 585.269 339.98C585.024 339.827 584.735 339.75 584.401 339.75C584.034 339.75 583.716 339.841 583.448 340.023C583.183 340.203 582.978 340.437 582.835 340.727C582.692 341.016 582.62 341.326 582.62 341.656V342.188C582.62 342.641 582.698 343.025 582.854 343.34C583.013 343.652 583.233 343.891 583.515 344.055C583.796 344.216 584.123 344.297 584.495 344.297C584.737 344.297 584.956 344.263 585.151 344.195C585.349 344.125 585.52 344.021 585.663 343.883C585.806 343.742 585.917 343.568 585.995 343.359L586.886 343.609C586.792 343.911 586.634 344.177 586.413 344.406C586.192 344.633 585.918 344.81 585.593 344.937C585.267 345.063 584.901 345.125 584.495 345.125ZM590.804 347.375C590.358 347.375 589.976 347.318 589.655 347.203C589.335 347.091 589.068 346.943 588.854 346.758C588.644 346.576 588.476 346.38 588.351 346.172L589.085 345.656C589.168 345.766 589.274 345.891 589.401 346.031C589.529 346.174 589.703 346.298 589.925 346.402C590.149 346.509 590.442 346.562 590.804 346.562C591.288 346.562 591.688 346.445 592.003 346.211C592.318 345.977 592.476 345.609 592.476 345.109V343.891H592.397C592.33 344 592.233 344.135 592.108 344.297C591.986 344.456 591.809 344.598 591.577 344.723C591.348 344.845 591.038 344.906 590.647 344.906C590.163 344.906 589.728 344.792 589.343 344.563C588.96 344.333 588.657 344 588.433 343.562C588.211 343.125 588.101 342.594 588.101 341.969C588.101 341.354 588.209 340.819 588.425 340.363C588.641 339.905 588.942 339.551 589.327 339.301C589.713 339.048 590.158 338.922 590.663 338.922C591.054 338.922 591.364 338.987 591.593 339.117C591.825 339.245 592.002 339.391 592.124 339.555C592.249 339.716 592.345 339.849 592.413 339.953H592.507V339H593.397V345.172C593.397 345.688 593.28 346.107 593.046 346.43C592.814 346.755 592.502 346.993 592.108 347.145C591.718 347.298 591.283 347.375 590.804 347.375ZM590.772 344.078C591.142 344.078 591.455 343.993 591.71 343.824C591.965 343.655 592.159 343.411 592.292 343.094C592.425 342.776 592.491 342.396 592.491 341.953C592.491 341.521 592.426 341.139 592.296 340.809C592.166 340.478 591.973 340.219 591.718 340.031C591.463 339.844 591.147 339.75 590.772 339.75C590.382 339.75 590.056 339.849 589.796 340.047C589.538 340.245 589.344 340.51 589.214 340.844C589.086 341.177 589.022 341.547 589.022 341.953C589.022 342.37 589.088 342.738 589.218 343.059C589.351 343.376 589.546 343.626 589.804 343.809C590.064 343.988 590.387 344.078 590.772 344.078ZM597.522 345.125C596.981 345.125 596.506 344.996 596.097 344.738C595.69 344.48 595.373 344.12 595.144 343.656C594.917 343.193 594.804 342.651 594.804 342.031C594.804 341.406 594.917 340.861 595.144 340.395C595.373 339.928 595.69 339.566 596.097 339.309C596.506 339.051 596.981 338.922 597.522 338.922C598.064 338.922 598.538 339.051 598.944 339.309C599.353 339.566 599.671 339.928 599.897 340.395C600.127 340.861 600.241 341.406 600.241 342.031C600.241 342.651 600.127 343.193 599.897 343.656C599.671 344.12 599.353 344.48 598.944 344.738C598.538 344.996 598.064 345.125 597.522 345.125ZM597.522 344.297C597.934 344.297 598.272 344.191 598.538 343.98C598.804 343.77 599 343.492 599.128 343.148C599.256 342.805 599.319 342.432 599.319 342.031C599.319 341.63 599.256 341.257 599.128 340.91C599 340.564 598.804 340.284 598.538 340.07C598.272 339.857 597.934 339.75 597.522 339.75C597.111 339.75 596.772 339.857 596.507 340.07C596.241 340.284 596.045 340.564 595.917 340.91C595.789 341.257 595.726 341.63 595.726 342.031C595.726 342.432 595.789 342.805 595.917 343.148C596.045 343.492 596.241 343.77 596.507 343.98C596.772 344.191 597.111 344.297 597.522 344.297ZM601.648 345V339H602.539V339.906H602.602C602.711 339.609 602.909 339.368 603.195 339.184C603.482 338.999 603.805 338.906 604.164 338.906C604.232 338.906 604.316 338.908 604.418 338.91C604.52 338.913 604.596 338.917 604.648 338.922V339.859C604.617 339.852 604.546 339.84 604.434 339.824C604.324 339.806 604.208 339.797 604.086 339.797C603.794 339.797 603.534 339.858 603.305 339.98C603.078 340.1 602.898 340.267 602.766 340.48C602.635 340.691 602.57 340.932 602.57 341.203V345H601.648ZM606.518 347.25C606.361 347.25 606.222 347.237 606.1 347.211C605.977 347.188 605.893 347.164 605.846 347.141L606.08 346.328C606.304 346.385 606.502 346.406 606.674 346.391C606.846 346.375 606.998 346.298 607.131 346.16C607.266 346.025 607.39 345.805 607.502 345.5L607.674 345.031L605.455 339H606.455L608.111 343.781H608.174L609.83 339H610.83L608.283 345.875C608.169 346.185 608.027 346.441 607.857 346.645C607.688 346.85 607.492 347.003 607.268 347.102C607.046 347.201 606.796 347.25 606.518 347.25ZM617.781 345.109C617.453 345.104 617.125 345.042 616.797 344.922C616.469 344.802 616.169 344.6 615.898 344.316C615.628 344.03 615.41 343.643 615.246 343.156C615.082 342.667 615 342.052 615 341.312C615 340.604 615.066 339.977 615.199 339.43C615.332 338.88 615.525 338.418 615.777 338.043C616.03 337.665 616.335 337.379 616.691 337.184C617.051 336.988 617.456 336.891 617.906 336.891C618.354 336.891 618.753 336.98 619.102 337.16C619.453 337.337 619.74 337.585 619.961 337.902C620.182 338.22 620.326 338.586 620.391 339H619.438C619.349 338.641 619.177 338.342 618.922 338.105C618.667 337.868 618.328 337.75 617.906 337.75C617.286 337.75 616.798 338.02 616.441 338.559C616.087 339.098 615.909 339.854 615.906 340.828H615.969C616.115 340.607 616.288 340.418 616.488 340.262C616.691 340.103 616.915 339.98 617.16 339.895C617.405 339.809 617.664 339.766 617.937 339.766C618.396 339.766 618.815 339.88 619.195 340.109C619.576 340.336 619.88 340.65 620.109 341.051C620.339 341.449 620.453 341.906 620.453 342.422C620.453 342.917 620.342 343.37 620.121 343.781C619.9 344.19 619.589 344.516 619.188 344.758C618.789 344.997 618.32 345.115 617.781 345.109ZM617.781 344.25C618.109 344.25 618.404 344.168 618.664 344.004C618.927 343.84 619.134 343.62 619.285 343.344C619.439 343.068 619.516 342.76 619.516 342.422C619.516 342.091 619.441 341.79 619.293 341.52C619.147 341.246 618.945 341.029 618.688 340.867C618.432 340.706 618.141 340.625 617.813 340.625C617.565 340.625 617.335 340.674 617.121 340.773C616.908 340.87 616.72 341.003 616.559 341.172C616.4 341.341 616.275 341.535 616.184 341.754C616.092 341.97 616.047 342.198 616.047 342.437C616.047 342.755 616.121 343.052 616.27 343.328C616.421 343.604 616.626 343.827 616.887 343.996C617.15 344.165 617.448 344.25 617.781 344.25Z" fill="#666666"/>
<path d="M46.5625 331.109C45.974 331.109 45.4727 330.949 45.0586 330.629C44.6445 330.306 44.3281 329.839 44.1094 329.227C43.8906 328.612 43.7813 327.87 43.7813 327C43.7813 326.135 43.8906 325.397 44.1094 324.785C44.3307 324.171 44.6484 323.702 45.0625 323.379C45.4792 323.053 45.9792 322.891 46.5625 322.891C47.1458 322.891 47.6445 323.053 48.0586 323.379C48.4753 323.702 48.793 324.171 49.0117 324.785C49.2331 325.397 49.3438 326.135 49.3438 327C49.3438 327.87 49.2344 328.612 49.0156 329.227C48.7969 329.839 48.4805 330.306 48.0664 330.629C47.6523 330.949 47.151 331.109 46.5625 331.109ZM46.5625 330.25C47.1458 330.25 47.599 329.969 47.9219 329.406C48.2448 328.844 48.4063 328.042 48.4063 327C48.4063 326.307 48.332 325.717 48.1836 325.23C48.0378 324.743 47.8268 324.372 47.5508 324.117C47.2773 323.862 46.9479 323.734 46.5625 323.734C45.9844 323.734 45.5326 324.02 45.207 324.59C44.8815 325.158 44.7188 325.961 44.7188 327C44.7188 327.693 44.7917 328.281 44.9375 328.766C45.0833 329.25 45.293 329.618 45.5664 329.871C45.8424 330.124 46.1745 330.25 46.5625 330.25Z" fill="#666666"/>
<path d="M34.7773 42V50H33.8086V43.0156H33.7617L31.8086 44.3125V43.3281L33.8086 42H34.7773ZM39.6875 50.1094C39.099 50.1094 38.5977 49.9492 38.1836 49.6289C37.7695 49.306 37.4531 48.8385 37.2344 48.2266C37.0156 47.612 36.9063 46.8698 36.9063 46C36.9063 45.1354 37.0156 44.3971 37.2344 43.7852C37.4557 43.1706 37.7734 42.7018 38.1875 42.3789C38.6042 42.0534 39.1042 41.8906 39.6875 41.8906C40.2708 41.8906 40.7695 42.0534 41.1836 42.3789C41.6003 42.7018 41.918 43.1706 42.1367 43.7852C42.3581 44.3971 42.4688 45.1354 42.4688 46C42.4688 46.8698 42.3594 47.612 42.1406 48.2266C41.9219 48.8385 41.6055 49.306 41.1914 49.6289C40.7773 49.9492 40.276 50.1094 39.6875 50.1094ZM39.6875 49.25C40.2708 49.25 40.724 48.9687 41.0469 48.4062C41.3698 47.8437 41.5313 47.0417 41.5313 46C41.5313 45.3073 41.457 44.7174 41.3086 44.2305C41.1628 43.7435 40.9518 43.3724 40.6758 43.1172C40.4023 42.862 40.0729 42.7344 39.6875 42.7344C39.1094 42.7344 38.6576 43.0195 38.332 43.5898C38.0065 44.1576 37.8438 44.9609 37.8438 46C37.8438 46.6927 37.9167 47.2812 38.0625 47.7656C38.2083 48.25 38.418 48.6185 38.6914 48.8711C38.9674 49.1237 39.2995 49.25 39.6875 49.25ZM46.5625 50.1094C45.974 50.1094 45.4727 49.9492 45.0586 49.6289C44.6445 49.306 44.3281 48.8385 44.1094 48.2266C43.8906 47.612 43.7813 46.8698 43.7813 46C43.7813 45.1354 43.8906 44.3971 44.1094 43.7852C44.3307 43.1706 44.6484 42.7018 45.0625 42.3789C45.4792 42.0534 45.9792 41.8906 46.5625 41.8906C47.1458 41.8906 47.6445 42.0534 48.0586 42.3789C48.4753 42.7018 48.793 43.1706 49.0117 43.7852C49.2331 44.3971 49.3438 45.1354 49.3438 46C49.3438 46.8698 49.2344 47.612 49.0156 48.2266C48.7969 48.8385 48.4805 49.306 48.0664 49.6289C47.6523 49.9492 47.151 50.1094 46.5625 50.1094ZM46.5625 49.25C47.1458 49.25 47.599 48.9687 47.9219 48.4062C48.2448 47.8437 48.4063 47.0417 48.4063 46C48.4063 45.3073 48.332 44.7174 48.1836 44.2305C48.0378 43.7435 47.8268 43.3724 47.5508 43.1172C47.2773 42.862 46.9479 42.7344 46.5625 42.7344C45.9844 42.7344 45.5326 43.0195 45.207 43.5898C44.8815 44.1576 44.7188 44.9609 44.7188 46C44.7188 46.6927 44.7917 47.2812 44.9375 47.7656C45.0833 48.25 45.293 48.6185 45.5664 48.8711C45.8424 49.1237 46.1745 49.25 46.5625 49.25Z" fill="#666666"/>
<path d="M37.4756 260V259.297L40.1162 256.406C40.4261 256.068 40.6813 255.773 40.8818 255.523C41.0824 255.271 41.2308 255.034 41.3271 254.812C41.4261 254.589 41.4756 254.354 41.4756 254.109C41.4756 253.828 41.4079 253.585 41.2725 253.379C41.1396 253.173 40.9574 253.014 40.7256 252.902C40.4938 252.79 40.2334 252.734 39.9443 252.734C39.637 252.734 39.3688 252.798 39.1396 252.926C38.9131 253.051 38.7373 253.227 38.6123 253.453C38.4899 253.68 38.4287 253.945 38.4287 254.25H37.5068C37.5068 253.781 37.6149 253.37 37.8311 253.016C38.0472 252.661 38.3415 252.385 38.7139 252.187C39.0889 251.99 39.5094 251.891 39.9756 251.891C40.4443 251.891 40.8597 251.99 41.2217 252.187C41.5837 252.385 41.8675 252.652 42.0732 252.988C42.279 253.324 42.3818 253.698 42.3818 254.109C42.3818 254.404 42.3285 254.691 42.2217 254.973C42.1175 255.251 41.9352 255.562 41.6748 255.906C41.417 256.247 41.0589 256.664 40.6006 257.156L38.8037 259.078V259.141H42.5225V260H37.4756ZM46.6357 260.109C46.1774 260.109 45.7646 260.018 45.3975 259.836C45.0303 259.654 44.736 259.404 44.5146 259.086C44.2933 258.768 44.1722 258.406 44.1514 258H45.0889C45.1253 258.362 45.2894 258.661 45.5811 258.898C45.8753 259.133 46.2269 259.25 46.6357 259.25C46.9639 259.25 47.2555 259.173 47.5107 259.02C47.7686 258.866 47.9704 258.655 48.1162 258.387C48.2646 258.116 48.3389 257.81 48.3389 257.469C48.3389 257.12 48.262 256.809 48.1084 256.535C47.9574 256.259 47.749 256.042 47.4834 255.883C47.2178 255.724 46.9144 255.643 46.5732 255.641C46.3285 255.638 46.0771 255.676 45.8193 255.754C45.5615 255.829 45.3493 255.927 45.1826 256.047L44.2764 255.937L44.7607 252H48.917V252.859H45.5732L45.292 255.219H45.3389C45.5029 255.089 45.7087 254.98 45.9561 254.895C46.2035 254.809 46.4613 254.766 46.7295 254.766C47.2191 254.766 47.6553 254.883 48.0381 255.117C48.4235 255.349 48.7256 255.667 48.9443 256.07C49.1657 256.474 49.2764 256.935 49.2764 257.453C49.2764 257.964 49.1618 258.419 48.9326 258.82C48.7061 259.219 48.3936 259.534 47.9951 259.766C47.5967 259.995 47.1436 260.109 46.6357 260.109Z" fill="#666666"/>
<path d="M39.7607 190.109C39.3024 190.109 38.8896 190.018 38.5225 189.836C38.1553 189.654 37.861 189.404 37.6396 189.086C37.4183 188.768 37.2972 188.406 37.2764 188H38.2139C38.2503 188.362 38.4144 188.661 38.7061 188.898C39.0003 189.133 39.3519 189.25 39.7607 189.25C40.0889 189.25 40.3805 189.173 40.6357 189.02C40.8936 188.866 41.0954 188.655 41.2412 188.387C41.3896 188.116 41.4639 187.81 41.4639 187.469C41.4639 187.12 41.387 186.809 41.2334 186.535C41.0824 186.259 40.874 186.042 40.6084 185.883C40.3428 185.724 40.0394 185.643 39.6982 185.641C39.4535 185.638 39.2021 185.676 38.9443 185.754C38.6865 185.829 38.4743 185.927 38.3076 186.047L37.4014 185.937L37.8857 182H42.042V182.859H38.6982L38.417 185.219H38.4639C38.6279 185.089 38.8337 184.98 39.0811 184.895C39.3285 184.809 39.5863 184.766 39.8545 184.766C40.3441 184.766 40.7803 184.883 41.1631 185.117C41.5485 185.349 41.8506 185.667 42.0693 186.07C42.2907 186.474 42.4014 186.935 42.4014 187.453C42.4014 187.964 42.2868 188.419 42.0576 188.82C41.8311 189.219 41.5186 189.534 41.1201 189.766C40.7217 189.995 40.2686 190.109 39.7607 190.109ZM46.5625 190.109C45.974 190.109 45.4727 189.949 45.0586 189.629C44.6445 189.306 44.3281 188.839 44.1094 188.227C43.8906 187.612 43.7813 186.87 43.7813 186C43.7813 185.135 43.8906 184.397 44.1094 183.785C44.3307 183.171 44.6484 182.702 45.0625 182.379C45.4792 182.053 45.9792 181.891 46.5625 181.891C47.1458 181.891 47.6445 182.053 48.0586 182.379C48.4753 182.702 48.793 183.171 49.0117 183.785C49.2331 184.397 49.3438 185.135 49.3438 186C49.3438 186.87 49.2344 187.612 49.0156 188.227C48.7969 188.839 48.4805 189.306 48.0664 189.629C47.6523 189.949 47.151 190.109 46.5625 190.109ZM46.5625 189.25C47.1458 189.25 47.599 188.969 47.9219 188.406C48.2448 187.844 48.4063 187.042 48.4063 186C48.4063 185.307 48.332 184.717 48.1836 184.23C48.0378 183.743 47.8268 183.372 47.5508 183.117C47.2773 182.862 46.9479 182.734 46.5625 182.734C45.9844 182.734 45.5326 183.02 45.207 183.59C44.8815 184.158 44.7188 184.961 44.7188 186C44.7188 186.693 44.7917 187.281 44.9375 187.766C45.0833 188.25 45.293 188.618 45.5664 188.871C45.8424 189.124 46.1745 189.25 46.5625 189.25Z" fill="#666666"/>
<path d="M38.209 120L41.7871 112.922V112.859H37.6621V112H42.7871V112.906L39.2246 120H38.209ZM46.6357 120.109C46.1774 120.109 45.7646 120.018 45.3975 119.836C45.0303 119.654 44.736 119.404 44.5146 119.086C44.2933 118.768 44.1722 118.406 44.1514 118H45.0889C45.1253 118.362 45.2894 118.661 45.5811 118.898C45.8753 119.133 46.2269 119.25 46.6357 119.25C46.9639 119.25 47.2555 119.173 47.5107 119.02C47.7686 118.866 47.9704 118.655 48.1162 118.387C48.2646 118.116 48.3389 117.81 48.3389 117.469C48.3389 117.12 48.262 116.809 48.1084 116.535C47.9574 116.259 47.749 116.042 47.4834 115.883C47.2178 115.724 46.9144 115.643 46.5732 115.641C46.3285 115.638 46.0771 115.676 45.8193 115.754C45.5615 115.829 45.3493 115.927 45.1826 116.047L44.2764 115.937L44.7607 112H48.917V112.859H45.5732L45.292 115.219H45.3389C45.5029 115.089 45.7087 114.98 45.9561 114.895C46.2035 114.809 46.4613 114.766 46.7295 114.766C47.2191 114.766 47.6553 114.883 48.0381 115.117C48.4235 115.349 48.7256 115.667 48.9443 116.07C49.1657 116.474 49.2764 116.935 49.2764 117.453C49.2764 117.964 49.1618 118.419 48.9326 118.82C48.7061 119.219 48.3936 119.534 47.9951 119.766C47.5967 119.995 47.1436 120.109 46.6357 120.109Z" fill="#666666"/>
</g>
<defs>
<clipPath id="clip0_269_617">
<rect width="650" height="400" fill="white"/>
</clipPath>
</defs>
</svg>
