<svg width="30" height="30" viewBox="0 0 30 30" fill="none" xmlns="http://www.w3.org/2000/svg">
<path d="M15 8.75C15.6904 8.75 16.25 9.30965 16.25 10V16.25C16.25 16.9404 15.6904 17.5 15 17.5C14.3096 17.5 13.75 16.9404 13.75 16.25V10C13.75 9.30965 14.3096 8.75 15 8.75Z" fill="#2B5E6C"/>
<path d="M15 21.25C15.6904 21.25 16.25 20.6904 16.25 20C16.25 19.3096 15.6904 18.75 15 18.75C14.3096 18.75 13.75 19.3096 13.75 20C13.75 20.6904 14.3096 21.25 15 21.25Z" fill="#2B5E6C"/>
<path fill-rule="evenodd" clip-rule="evenodd" d="M15 2.5C8.09644 2.5 2.5 8.09644 2.5 15C2.5 21.9035 8.09644 27.5 15 27.5C21.9035 27.5 27.5 21.9035 27.5 15C27.5 8.09644 21.9035 2.5 15 2.5ZM5 15C5 9.47715 9.47715 5 15 5C20.5229 5 25 9.47715 25 15C25 20.5229 20.5229 25 15 25C9.47715 25 5 20.5229 5 15Z" fill="#2B5E6C"/>
</svg>
