<svg width="18" height="18" viewBox="0 0 18 18" fill="none" xmlns="http://www.w3.org/2000/svg">
<path d="M8.99935 0.667969C4.40768 0.667969 0.666016 4.40964 0.666016 9.0013C0.666016 13.593 4.40768 17.3346 8.99935 17.3346C13.591 17.3346 17.3327 13.593 17.3327 9.0013C17.3327 4.40964 13.591 0.667969 8.99935 0.667969ZM11.7993 10.918C12.041 11.1596 12.041 11.5596 11.7993 11.8013C11.6743 11.9263 11.516 11.9846 11.3577 11.9846C11.1993 11.9846 11.041 11.9263 10.916 11.8013L8.99935 9.88464L7.08268 11.8013C6.95768 11.9263 6.79935 11.9846 6.64102 11.9846C6.48268 11.9846 6.32435 11.9263 6.19935 11.8013C5.95768 11.5596 5.95768 11.1596 6.19935 10.918L8.11601 9.0013L6.19935 7.08464C5.95768 6.84297 5.95768 6.44297 6.19935 6.2013C6.44102 5.95964 6.84102 5.95964 7.08268 6.2013L8.99935 8.11797L10.916 6.2013C11.1577 5.95964 11.5577 5.95964 11.7993 6.2013C12.041 6.44297 12.041 6.84297 11.7993 7.08464L9.88268 9.0013L11.7993 10.918Z" fill="#2B5E6C"/>
</svg>
