<svg width="25" height="21" viewBox="0 0 25 21" fill="none" xmlns="http://www.w3.org/2000/svg">
<path d="M12.1675 5.82509L4.16536 12.4158V19.5291C4.16536 19.7133 4.23853 19.8899 4.36876 20.0201C4.499 20.1504 4.67563 20.2235 4.85981 20.2235L9.72352 20.2109C9.9071 20.21 10.0828 20.1365 10.2123 20.0063C10.3418 19.8762 10.4145 19.7001 10.4145 19.5165V15.3624C10.4145 15.1782 10.4877 15.0016 10.6179 14.8714C10.7481 14.7411 10.9248 14.668 11.1089 14.668H13.8867C14.0709 14.668 14.2475 14.7411 14.3778 14.8714C14.508 15.0016 14.5812 15.1782 14.5812 15.3624V19.5135C14.5809 19.6048 14.5986 19.6954 14.6334 19.7799C14.6682 19.8644 14.7193 19.9412 14.7838 20.0059C14.8483 20.0706 14.925 20.122 15.0093 20.157C15.0937 20.192 15.1842 20.2101 15.2756 20.2101L20.1376 20.2235C20.3218 20.2235 20.4984 20.1504 20.6286 20.0201C20.7589 19.8899 20.832 19.7133 20.832 19.5291V12.411L12.8316 5.82509C12.7375 5.74927 12.6204 5.70793 12.4996 5.70793C12.3788 5.70793 12.2616 5.74927 12.1675 5.82509ZM24.8077 10.3047L21.1793 7.3138V1.30208C21.1793 1.16395 21.1244 1.03147 21.0267 0.933799C20.929 0.836123 20.7966 0.78125 20.6584 0.78125H18.2279C18.0897 0.78125 17.9573 0.836123 17.8596 0.933799C17.7619 1.03147 17.707 1.16395 17.707 1.30208V4.45356L13.8212 1.25651C13.4483 0.949644 12.9803 0.781863 12.4974 0.781863C12.0145 0.781863 11.5465 0.949644 11.1736 1.25651L0.187065 10.3047C0.134326 10.3483 0.0906918 10.4018 0.0586571 10.4623C0.0266223 10.5228 0.00681457 10.5889 0.000365518 10.6571C-0.00608353 10.7252 0.000952543 10.7939 0.0210717 10.8593C0.0411909 10.9247 0.0739988 10.9855 0.117621 11.0382L1.22439 12.3837C1.26789 12.4366 1.3214 12.4804 1.38186 12.5126C1.44231 12.5448 1.50852 12.5647 1.57669 12.5713C1.64486 12.5779 1.71366 12.5709 1.77915 12.5509C1.84464 12.5308 1.90553 12.498 1.95833 12.4544L12.1675 4.04557C12.2616 3.96976 12.3788 3.92842 12.4996 3.92842C12.6204 3.92842 12.7375 3.96976 12.8316 4.04557L23.0412 12.4544C23.0939 12.4981 23.1547 12.5309 23.2201 12.551C23.2855 12.5711 23.3543 12.5781 23.4224 12.5717C23.4905 12.5652 23.5567 12.5454 23.6171 12.5134C23.6776 12.4814 23.7311 12.4377 23.7747 12.385L24.8815 11.0395C24.9251 10.9865 24.9578 10.9254 24.9776 10.8597C24.9975 10.794 25.0042 10.725 24.9974 10.6568C24.9905 10.5885 24.9702 10.5222 24.9377 10.4618C24.9051 10.4014 24.861 10.348 24.8077 10.3047Z" fill="#2B5E6C"/>
</svg>
