<svg width="26" height="25" viewBox="0 0 26 25" fill="none" xmlns="http://www.w3.org/2000/svg">
<path d="M8.39538 12.5H5.82285C5.44499 12.5 5.13867 12.8109 5.13867 13.1944V19.8056C5.13867 20.1891 5.44499 20.5 5.82285 20.5H8.39538C8.77324 20.5 9.07956 20.1891 9.07956 19.8056V13.1944C9.07956 12.8109 8.77324 12.5 8.39538 12.5Z" fill="#C6C6C6"/>
<path d="M14.3075 4.5H11.735C11.3571 4.5 11.0508 4.81091 11.0508 5.19444V19.8056C11.0508 20.1891 11.3571 20.5 11.735 20.5H14.3075C14.6853 20.5 14.9917 20.1891 14.9917 19.8056V5.19444C14.9917 4.81091 14.6853 4.5 14.3075 4.5Z" fill="#C6C6C6"/>
<path d="M20.2176 9.83203H17.6451C17.2673 9.83203 16.9609 10.1429 16.9609 10.5265V19.8043C16.9609 20.1878 17.2673 20.4987 17.6451 20.4987H20.2176C20.5955 20.4987 20.9018 20.1878 20.9018 19.8043V10.5265C20.9018 10.1429 20.5955 9.83203 20.2176 9.83203Z" fill="#C6C6C6"/>
</svg>
