<svg width="535" height="400" viewBox="0 0 535 400" fill="none" xmlns="http://www.w3.org/2000/svg">
<g clip-path="url(#clip0_266_560)">
<path d="M593 0H-57V400H593V0Z" fill="white"/>
<path d="M267.977 81.1992C293.513 81.194 318.323 89.7036 338.481 105.382C358.638 121.06 372.993 143.012 379.274 167.764C385.554 192.517 383.403 218.657 373.159 242.049C362.916 265.441 345.165 284.75 322.715 296.922L303.565 261.599C318.157 253.687 329.695 241.137 336.353 225.932C343.012 210.727 344.41 193.736 340.328 177.646C336.245 161.557 326.915 147.289 313.812 137.098C300.71 126.907 284.584 121.376 267.985 121.379L267.977 81.1992Z" fill="#FFB5FF" fill-opacity="0.9" stroke="white" stroke-linejoin="round"/>
<path d="M322.613 296.977C305.84 306.048 287.072 310.799 268.004 310.8C248.936 310.801 230.167 306.052 213.394 296.982C196.621 287.912 182.371 274.807 171.932 258.85C161.492 242.893 155.192 224.587 153.6 205.585L193.639 202.23C194.674 214.582 198.769 226.481 205.555 236.853C212.341 247.225 221.603 255.743 232.506 261.638C243.408 267.534 255.608 270.621 268.002 270.62C280.397 270.619 292.596 267.532 303.498 261.635L322.613 296.977Z" fill="#BB71F6" stroke="white" stroke-linejoin="round"/>
<path d="M153.591 205.47C152.018 186.476 155.199 167.39 162.847 149.933C170.495 132.476 182.369 117.198 197.397 105.477L222.108 137.16C212.339 144.778 204.622 154.709 199.65 166.056C194.679 177.403 192.612 189.809 193.634 202.155L153.591 205.47Z" fill="#2DDAC1" stroke="white" stroke-linejoin="round"/>
<path d="M197.488 105.406C217.602 89.7509 242.353 81.2346 267.841 81.1992L267.896 121.379C251.329 121.402 235.241 126.938 222.167 137.113L197.488 105.406Z" fill="#4B93E6" stroke="white" stroke-linejoin="round"/>
<path d="M195.274 17.438H199.41V30H202.556V17.438H206.714V14.6H195.274V17.438ZM209.269 19.88H206.475V30H209.269V19.88ZM212.239 22.85L213.537 20.43C213.332 20.166 213.061 19.968 212.723 19.836C212.401 19.704 212.056 19.638 211.689 19.638C211.161 19.638 210.648 19.8287 210.149 20.21C209.651 20.5767 209.247 21.0753 208.939 21.706C208.631 22.322 208.477 23.0333 208.477 23.84L209.269 24.632C209.269 24.148 209.328 23.7373 209.445 23.4C209.577 23.048 209.768 22.7767 210.017 22.586C210.267 22.3953 210.567 22.3 210.919 22.3C211.213 22.3 211.455 22.3513 211.645 22.454C211.851 22.542 212.049 22.674 212.239 22.85ZM217.072 26.854C217.072 26.5607 217.138 26.3187 217.27 26.128C217.402 25.9227 217.607 25.7687 217.886 25.666C218.164 25.5487 218.524 25.49 218.964 25.49C219.506 25.49 220.02 25.5633 220.504 25.71C221.002 25.8567 221.45 26.0767 221.846 26.37V25.05C221.699 24.874 221.457 24.6907 221.12 24.5C220.782 24.3093 220.364 24.148 219.866 24.016C219.382 23.884 218.817 23.818 218.172 23.818C216.91 23.818 215.935 24.104 215.246 24.676C214.556 25.248 214.212 26.0253 214.212 27.008C214.212 27.6973 214.373 28.284 214.696 28.768C215.033 29.2373 215.473 29.5967 216.016 29.846C216.558 30.0953 217.145 30.22 217.776 30.22C218.392 30.22 218.978 30.11 219.536 29.89C220.108 29.67 220.57 29.34 220.922 28.9C221.288 28.46 221.472 27.9173 221.472 27.272L221.12 25.952C221.12 26.436 221.01 26.854 220.79 27.206C220.57 27.5433 220.284 27.8073 219.932 27.998C219.58 28.174 219.184 28.262 218.744 28.262C218.436 28.262 218.15 28.2107 217.886 28.108C217.636 27.9907 217.438 27.8293 217.292 27.624C217.145 27.404 217.072 27.1473 217.072 26.854ZM215.972 22.74C216.118 22.6373 216.346 22.5127 216.654 22.366C216.962 22.2193 217.328 22.0947 217.754 21.992C218.179 21.8893 218.626 21.838 219.096 21.838C219.404 21.838 219.682 21.8673 219.932 21.926C220.181 21.9847 220.394 22.08 220.57 22.212C220.76 22.344 220.9 22.5127 220.988 22.718C221.076 22.9087 221.12 23.1433 221.12 23.422V30H223.87V22.828C223.87 22.1387 223.679 21.5593 223.298 21.09C222.916 20.606 222.388 20.2393 221.714 19.99C221.039 19.7407 220.269 19.616 219.404 19.616C218.465 19.616 217.614 19.748 216.852 20.012C216.089 20.2613 215.444 20.5253 214.916 20.804L215.972 22.74ZM225.662 19.88V22.278H231.998V19.88H225.662ZM231.69 15.7L232.9 13.566C232.768 13.4193 232.585 13.2653 232.35 13.104C232.13 12.9427 231.859 12.8107 231.536 12.708C231.214 12.5907 230.825 12.532 230.37 12.532C229.608 12.532 228.962 12.6787 228.434 12.972C227.906 13.2507 227.51 13.654 227.246 14.182C226.982 14.71 226.85 15.3627 226.85 16.14V30H229.6V16.778C229.6 16.3967 229.644 16.0813 229.732 15.832C229.82 15.5827 229.938 15.4067 230.084 15.304C230.246 15.1867 230.436 15.128 230.656 15.128C230.832 15.128 231.008 15.172 231.184 15.26C231.375 15.3333 231.544 15.48 231.69 15.7ZM232.838 19.88V22.278H239.174V19.88H232.838ZM238.866 15.7L240.076 13.566C239.944 13.4193 239.761 13.2653 239.526 13.104C239.306 12.9427 239.035 12.8107 238.712 12.708C238.389 12.5907 238.001 12.532 237.546 12.532C236.783 12.532 236.138 12.6787 235.61 12.972C235.082 13.2507 234.686 13.654 234.422 14.182C234.158 14.71 234.026 15.3627 234.026 16.14V30H236.776V16.778C236.776 16.3967 236.82 16.0813 236.908 15.832C236.996 15.5827 237.113 15.4067 237.26 15.304C237.421 15.1867 237.612 15.128 237.832 15.128C238.008 15.128 238.184 15.172 238.36 15.26C238.551 15.3333 238.719 15.48 238.866 15.7ZM240.74 15.964C240.74 16.4187 240.909 16.8 241.246 17.108C241.583 17.416 241.987 17.57 242.456 17.57C242.925 17.57 243.321 17.416 243.644 17.108C243.981 16.8 244.15 16.4187 244.15 15.964C244.15 15.4947 243.981 15.1133 243.644 14.82C243.321 14.512 242.925 14.358 242.456 14.358C241.987 14.358 241.583 14.512 241.246 14.82C240.909 15.1133 240.74 15.4947 240.74 15.964ZM241.048 19.88V30H243.82V19.88H241.048ZM249.001 24.94C249.001 24.368 249.133 23.862 249.397 23.422C249.661 22.982 250.013 22.6373 250.453 22.388C250.907 22.124 251.406 21.992 251.949 21.992C252.359 21.992 252.77 22.058 253.181 22.19C253.591 22.322 253.965 22.5127 254.303 22.762C254.655 22.9967 254.919 23.2753 255.095 23.598V20.672C254.743 20.364 254.281 20.122 253.709 19.946C253.151 19.7553 252.499 19.66 251.751 19.66C250.68 19.66 249.712 19.88 248.847 20.32C247.996 20.76 247.321 21.376 246.823 22.168C246.339 22.96 246.097 23.884 246.097 24.94C246.097 25.9813 246.339 26.9053 246.823 27.712C247.321 28.504 247.996 29.12 248.847 29.56C249.712 30 250.68 30.22 251.751 30.22C252.499 30.22 253.151 30.132 253.709 29.956C254.281 29.7653 254.743 29.5087 255.095 29.186V26.26C254.919 26.5827 254.662 26.8687 254.325 27.118C254.002 27.3527 253.635 27.5433 253.225 27.69C252.814 27.822 252.389 27.888 251.949 27.888C251.406 27.888 250.907 27.7633 250.453 27.514C250.013 27.2647 249.661 26.92 249.397 26.48C249.133 26.04 249.001 25.5267 249.001 24.94ZM265.81 24.83L263.566 26.414C263.903 27.1327 264.373 27.8 264.974 28.416C265.575 29.032 266.279 29.5233 267.086 29.89C267.907 30.242 268.787 30.418 269.726 30.418C270.43 30.418 271.097 30.308 271.728 30.088C272.373 29.8827 272.953 29.582 273.466 29.186C273.979 28.7753 274.383 28.2767 274.676 27.69C274.969 27.1033 275.116 26.436 275.116 25.688C275.116 25.028 275.006 24.4487 274.786 23.95C274.581 23.4367 274.287 22.9967 273.906 22.63C273.539 22.2487 273.121 21.926 272.652 21.662C272.197 21.398 271.721 21.178 271.222 21.002C270.445 20.738 269.799 20.4813 269.286 20.232C268.773 19.968 268.391 19.6967 268.142 19.418C267.893 19.1247 267.768 18.7873 267.768 18.406C267.768 18.0247 267.922 17.6947 268.23 17.416C268.538 17.1227 269 16.976 269.616 16.976C270.085 16.976 270.503 17.0713 270.87 17.262C271.237 17.438 271.559 17.68 271.838 17.988C272.131 18.2813 272.381 18.6113 272.586 18.978L275.05 17.614C274.786 17.0713 274.412 16.5507 273.928 16.052C273.459 15.5387 272.865 15.1207 272.146 14.798C271.442 14.4607 270.599 14.292 269.616 14.292C268.663 14.292 267.797 14.468 267.02 14.82C266.257 15.1573 265.649 15.6487 265.194 16.294C264.754 16.9247 264.534 17.68 264.534 18.56C264.534 19.2933 264.673 19.924 264.952 20.452C265.231 20.9653 265.583 21.4053 266.008 21.772C266.433 22.124 266.881 22.4173 267.35 22.652C267.834 22.872 268.259 23.048 268.626 23.18C269.315 23.444 269.895 23.6933 270.364 23.928C270.848 24.148 271.207 24.4047 271.442 24.698C271.691 24.9913 271.816 25.38 271.816 25.864C271.816 26.4213 271.618 26.8613 271.222 27.184C270.826 27.5067 270.313 27.668 269.682 27.668C269.139 27.668 268.633 27.5507 268.164 27.316C267.695 27.0813 267.262 26.7513 266.866 26.326C266.485 25.9007 266.133 25.402 265.81 24.83ZM276.735 24.94C276.735 25.9813 276.977 26.9053 277.461 27.712C277.959 28.504 278.627 29.12 279.463 29.56C280.313 30 281.274 30.22 282.345 30.22C283.415 30.22 284.369 30 285.205 29.56C286.055 29.12 286.723 28.504 287.207 27.712C287.705 26.9053 287.955 25.9813 287.955 24.94C287.955 23.884 287.705 22.96 287.207 22.168C286.723 21.376 286.055 20.76 285.205 20.32C284.369 19.88 283.415 19.66 282.345 19.66C281.274 19.66 280.313 19.88 279.463 20.32C278.627 20.76 277.959 21.376 277.461 22.168C276.977 22.96 276.735 23.884 276.735 24.94ZM279.639 24.94C279.639 24.368 279.756 23.862 279.991 23.422C280.24 22.982 280.57 22.6447 280.981 22.41C281.391 22.1753 281.846 22.058 282.345 22.058C282.843 22.058 283.298 22.1753 283.709 22.41C284.119 22.6447 284.442 22.982 284.677 23.422C284.926 23.862 285.051 24.368 285.051 24.94C285.051 25.512 284.926 26.018 284.677 26.458C284.442 26.8833 284.119 27.2207 283.709 27.47C283.298 27.7047 282.843 27.822 282.345 27.822C281.846 27.822 281.391 27.7047 280.981 27.47C280.57 27.2207 280.24 26.8833 279.991 26.458C279.756 26.018 279.639 25.512 279.639 24.94ZM293.041 26.04V19.88H290.093V26.348C290.093 27.5507 290.386 28.4967 290.973 29.186C291.574 29.8753 292.476 30.22 293.679 30.22C294.397 30.22 295.006 30.0733 295.505 29.78C296.003 29.472 296.414 29.032 296.737 28.46V30H299.575V19.88H296.737V26.04C296.737 26.4653 296.649 26.832 296.473 27.14C296.311 27.448 296.077 27.69 295.769 27.866C295.475 28.0273 295.123 28.108 294.713 28.108C294.126 28.108 293.701 27.932 293.437 27.58C293.173 27.2133 293.041 26.7 293.041 26.04ZM305.176 19.88H302.382V30H305.176V19.88ZM308.146 22.85L309.444 20.43C309.238 20.166 308.967 19.968 308.63 19.836C308.307 19.704 307.962 19.638 307.596 19.638C307.068 19.638 306.554 19.8287 306.056 20.21C305.557 20.5767 305.154 21.0753 304.846 21.706C304.538 22.322 304.384 23.0333 304.384 23.84L305.176 24.632C305.176 24.148 305.234 23.7373 305.352 23.4C305.484 23.048 305.674 22.7767 305.924 22.586C306.173 22.3953 306.474 22.3 306.826 22.3C307.119 22.3 307.361 22.3513 307.552 22.454C307.757 22.542 307.955 22.674 308.146 22.85ZM312.788 24.94C312.788 24.368 312.92 23.862 313.184 23.422C313.448 22.982 313.8 22.6373 314.24 22.388C314.694 22.124 315.193 21.992 315.736 21.992C316.146 21.992 316.557 22.058 316.968 22.19C317.378 22.322 317.752 22.5127 318.09 22.762C318.442 22.9967 318.706 23.2753 318.882 23.598V20.672C318.53 20.364 318.068 20.122 317.496 19.946C316.938 19.7553 316.286 19.66 315.538 19.66C314.467 19.66 313.499 19.88 312.634 20.32C311.783 20.76 311.108 21.376 310.61 22.168C310.126 22.96 309.884 23.884 309.884 24.94C309.884 25.9813 310.126 26.9053 310.61 27.712C311.108 28.504 311.783 29.12 312.634 29.56C313.499 30 314.467 30.22 315.538 30.22C316.286 30.22 316.938 30.132 317.496 29.956C318.068 29.7653 318.53 29.5087 318.882 29.186V26.26C318.706 26.5827 318.449 26.8687 318.112 27.118C317.789 27.3527 317.422 27.5433 317.012 27.69C316.601 27.822 316.176 27.888 315.736 27.888C315.193 27.888 314.694 27.7633 314.24 27.514C313.8 27.2647 313.448 26.92 313.184 26.48C312.92 26.04 312.788 25.5267 312.788 24.94ZM326.169 30.22C327.387 30.22 328.428 29.9853 329.293 29.516C330.173 29.032 330.877 28.3133 331.405 27.36L328.919 26.59C328.626 27.074 328.252 27.4407 327.797 27.69C327.357 27.9247 326.822 28.042 326.191 28.042C325.634 28.042 325.157 27.9173 324.761 27.668C324.365 27.4187 324.065 27.0593 323.859 26.59C323.669 26.1207 323.573 25.5487 323.573 24.874C323.588 24.17 323.691 23.5833 323.881 23.114C324.087 22.63 324.373 22.2707 324.739 22.036C325.121 21.7867 325.59 21.662 326.147 21.662C326.602 21.662 326.998 21.7647 327.335 21.97C327.673 22.1753 327.929 22.454 328.105 22.806C328.296 23.158 328.391 23.5833 328.391 24.082C328.391 24.1847 328.362 24.3167 328.303 24.478C328.259 24.6247 328.208 24.742 328.149 24.83L328.919 23.818H322.341V25.578H331.405C331.42 25.49 331.427 25.3727 331.427 25.226C331.442 25.0793 331.449 24.94 331.449 24.808C331.449 23.7227 331.244 22.7987 330.833 22.036C330.423 21.2587 329.821 20.672 329.029 20.276C328.252 19.8653 327.306 19.66 326.191 19.66C325.077 19.66 324.109 19.88 323.287 20.32C322.466 20.7453 321.828 21.354 321.373 22.146C320.933 22.9233 320.713 23.8547 320.713 24.94C320.713 26.0107 320.933 26.942 321.373 27.734C321.828 28.5113 322.466 29.12 323.287 29.56C324.109 30 325.069 30.22 326.169 30.22ZM334.104 26.502L332.718 28.284C333.1 28.6507 333.525 28.9953 333.994 29.318C334.478 29.626 335.014 29.8753 335.6 30.066C336.202 30.2567 336.862 30.352 337.58 30.352C338.739 30.352 339.648 30.0733 340.308 29.516C340.968 28.944 341.298 28.152 341.298 27.14C341.298 26.524 341.159 26.0253 340.88 25.644C340.602 25.2627 340.228 24.9473 339.758 24.698C339.304 24.434 338.805 24.1993 338.262 23.994C337.822 23.8033 337.426 23.642 337.074 23.51C336.737 23.378 336.473 23.2313 336.282 23.07C336.106 22.894 336.018 22.696 336.018 22.476C336.018 22.2267 336.106 22.0433 336.282 21.926C336.473 21.794 336.73 21.728 337.052 21.728C337.536 21.728 338.028 21.8527 338.526 22.102C339.04 22.3513 339.48 22.674 339.846 23.07L341.1 21.31C340.778 20.9873 340.404 20.7087 339.978 20.474C339.553 20.2247 339.091 20.0267 338.592 19.88C338.094 19.7333 337.558 19.66 336.986 19.66C336.312 19.66 335.696 19.77 335.138 19.99C334.596 20.1953 334.163 20.5107 333.84 20.936C333.518 21.3467 333.356 21.8527 333.356 22.454C333.356 23.0847 333.496 23.6053 333.774 24.016C334.068 24.412 334.434 24.7347 334.874 24.984C335.314 25.2187 335.769 25.424 336.238 25.6C336.737 25.7613 337.148 25.9153 337.47 26.062C337.793 26.2087 338.035 26.3773 338.196 26.568C338.372 26.744 338.46 26.964 338.46 27.228C338.46 27.5213 338.358 27.756 338.152 27.932C337.947 28.0933 337.654 28.174 337.272 28.174C336.979 28.174 336.664 28.1153 336.326 27.998C336.004 27.8807 335.659 27.7047 335.292 27.47C334.926 27.2207 334.53 26.898 334.104 26.502Z" fill="black"/>
<path d="M151.604 368.273V377H149.759V368.273H151.604ZM156.569 370.455V371.818H152.627V370.455H156.569ZM153.522 368.886H155.338V374.989C155.338 375.156 155.363 375.287 155.414 375.381C155.466 375.472 155.537 375.536 155.627 375.572C155.721 375.609 155.829 375.628 155.951 375.628C156.037 375.628 156.122 375.621 156.207 375.607C156.292 375.589 156.358 375.577 156.403 375.568L156.689 376.919C156.598 376.947 156.47 376.98 156.305 377.017C156.14 377.057 155.94 377.081 155.704 377.089C155.267 377.107 154.883 377.048 154.554 376.915C154.227 376.781 153.973 376.574 153.791 376.293C153.609 376.011 153.52 375.656 153.522 375.227V368.886ZM160.664 377.128C159.991 377.128 159.412 376.991 158.926 376.719C158.443 376.443 158.071 376.054 157.809 375.551C157.548 375.045 157.417 374.447 157.417 373.757C157.417 373.084 157.548 372.493 157.809 371.984C158.071 371.476 158.439 371.08 158.913 370.795C159.39 370.511 159.95 370.369 160.592 370.369C161.024 370.369 161.426 370.439 161.798 370.578C162.173 370.714 162.5 370.92 162.778 371.196C163.059 371.472 163.278 371.818 163.434 372.236C163.591 372.651 163.669 373.136 163.669 373.693V374.192H158.142V373.067H161.96C161.96 372.805 161.903 372.574 161.789 372.372C161.676 372.17 161.518 372.013 161.316 371.899C161.118 371.783 160.886 371.724 160.622 371.724C160.346 371.724 160.102 371.788 159.889 371.916C159.679 372.041 159.514 372.21 159.395 372.423C159.275 372.634 159.214 372.868 159.211 373.126V374.196C159.211 374.52 159.271 374.8 159.39 375.036C159.512 375.271 159.684 375.453 159.906 375.581C160.127 375.709 160.39 375.773 160.694 375.773C160.896 375.773 161.081 375.744 161.248 375.688C161.416 375.631 161.559 375.545 161.679 375.432C161.798 375.318 161.889 375.179 161.951 375.014L163.63 375.125C163.545 375.528 163.37 375.881 163.106 376.182C162.845 376.48 162.507 376.713 162.092 376.881C161.68 377.045 161.204 377.128 160.664 377.128ZM164.853 377V370.455H166.583V371.609H166.66C166.797 371.226 167.024 370.923 167.342 370.702C167.66 370.48 168.041 370.369 168.484 370.369C168.933 370.369 169.315 370.482 169.63 370.706C169.946 370.928 170.156 371.229 170.261 371.609H170.329C170.463 371.234 170.704 370.935 171.054 370.71C171.406 370.483 171.822 370.369 172.302 370.369C172.913 370.369 173.409 370.564 173.789 370.953C174.173 371.339 174.365 371.888 174.365 372.598V377H172.554V372.956C172.554 372.592 172.457 372.32 172.264 372.138C172.071 371.956 171.829 371.865 171.539 371.865C171.21 371.865 170.953 371.97 170.768 372.18C170.583 372.388 170.491 372.662 170.491 373.003V377H168.731V372.918C168.731 372.597 168.639 372.341 168.454 372.151C168.272 371.96 168.032 371.865 167.734 371.865C167.532 371.865 167.35 371.916 167.189 372.018C167.029 372.118 166.903 372.259 166.809 372.44C166.716 372.619 166.669 372.83 166.669 373.071V377H164.853ZM182.356 368.273V377H180.511V370.024H180.46L178.461 371.277V369.641L180.621 368.273H182.356Z" fill="#333333"/>
<path d="M142 372C142 368.686 139.314 366 136 366C132.686 366 130 368.686 130 372C130 375.314 132.686 378 136 378C139.314 378 142 375.314 142 372Z" fill="#FFBCFF"/>
<path d="M226.51 368.273V377H224.665V368.273H226.51ZM231.475 370.455V371.818H227.534V370.455H231.475ZM228.429 368.886H230.244V374.989C230.244 375.156 230.27 375.287 230.321 375.381C230.372 375.472 230.443 375.536 230.534 375.572C230.627 375.609 230.735 375.628 230.858 375.628C230.943 375.628 231.028 375.621 231.113 375.607C231.199 375.589 231.264 375.577 231.309 375.568L231.595 376.919C231.504 376.947 231.376 376.98 231.211 377.017C231.047 377.057 230.846 377.081 230.61 377.089C230.173 377.107 229.789 377.048 229.46 376.915C229.133 376.781 228.879 376.574 228.697 376.293C228.515 376.011 228.426 375.656 228.429 375.227V368.886ZM235.571 377.128C234.897 377.128 234.318 376.991 233.832 376.719C233.349 376.443 232.977 376.054 232.716 375.551C232.454 375.045 232.324 374.447 232.324 373.757C232.324 373.084 232.454 372.493 232.716 371.984C232.977 371.476 233.345 371.08 233.819 370.795C234.297 370.511 234.856 370.369 235.498 370.369C235.93 370.369 236.332 370.439 236.704 370.578C237.079 370.714 237.406 370.92 237.684 371.196C237.966 371.472 238.184 371.818 238.341 372.236C238.497 372.651 238.575 373.136 238.575 373.693V374.192H233.048V373.067H236.866C236.866 372.805 236.809 372.574 236.696 372.372C236.582 372.17 236.424 372.013 236.223 371.899C236.024 371.783 235.792 371.724 235.528 371.724C235.252 371.724 235.008 371.788 234.795 371.916C234.585 372.041 234.42 372.21 234.301 372.423C234.181 372.634 234.12 372.868 234.118 373.126V374.196C234.118 374.52 234.177 374.8 234.297 375.036C234.419 375.271 234.591 375.453 234.812 375.581C235.034 375.709 235.297 375.773 235.6 375.773C235.802 375.773 235.987 375.744 236.154 375.688C236.322 375.631 236.466 375.545 236.585 375.432C236.704 375.318 236.795 375.179 236.858 375.014L238.537 375.125C238.451 375.528 238.277 375.881 238.012 376.182C237.751 376.48 237.413 376.713 236.998 376.881C236.586 377.045 236.11 377.128 235.571 377.128ZM239.76 377V370.455H241.49V371.609H241.566C241.703 371.226 241.93 370.923 242.248 370.702C242.566 370.48 242.947 370.369 243.39 370.369C243.839 370.369 244.221 370.482 244.537 370.706C244.852 370.928 245.062 371.229 245.167 371.609H245.235C245.369 371.234 245.61 370.935 245.96 370.71C246.312 370.483 246.728 370.369 247.208 370.369C247.819 370.369 248.315 370.564 248.696 370.953C249.079 371.339 249.271 371.888 249.271 372.598V377H247.46V372.956C247.46 372.592 247.363 372.32 247.17 372.138C246.977 371.956 246.735 371.865 246.446 371.865C246.116 371.865 245.859 371.97 245.674 372.18C245.49 372.388 245.397 372.662 245.397 373.003V377H243.637V372.918C243.637 372.597 243.545 372.341 243.36 372.151C243.179 371.96 242.939 371.865 242.64 371.865C242.439 371.865 242.257 371.916 242.095 372.018C241.936 372.118 241.809 372.259 241.716 372.44C241.622 372.619 241.575 372.83 241.575 373.071V377H239.76ZM253.465 377V375.67L256.572 372.794C256.836 372.538 257.058 372.308 257.237 372.104C257.418 371.899 257.556 371.699 257.65 371.503C257.744 371.304 257.79 371.089 257.79 370.859C257.79 370.604 257.732 370.384 257.616 370.199C257.499 370.011 257.34 369.868 257.138 369.768C256.937 369.666 256.708 369.615 256.452 369.615C256.185 369.615 255.952 369.669 255.754 369.777C255.555 369.885 255.401 370.04 255.293 370.241C255.185 370.443 255.131 370.683 255.131 370.962H253.38C253.38 370.391 253.509 369.895 253.768 369.474C254.026 369.054 254.388 368.729 254.854 368.499C255.32 368.268 255.857 368.153 256.465 368.153C257.09 368.153 257.634 368.264 258.097 368.486C258.563 368.705 258.925 369.009 259.184 369.398C259.442 369.787 259.572 370.233 259.572 370.736C259.572 371.065 259.506 371.391 259.376 371.712C259.248 372.033 259.019 372.389 258.69 372.781C258.36 373.17 257.896 373.638 257.296 374.183L256.022 375.432V375.491H259.687V377H253.465Z" fill="#333333"/>
<path d="M216.906 372C216.906 368.686 214.22 366 210.906 366C207.593 366 204.906 368.686 204.906 372C204.906 375.314 207.593 378 210.906 378C214.22 378 216.906 375.314 216.906 372Z" fill="#BB71F6"/>
<path d="M301.416 368.273V377H299.571V368.273H301.416ZM306.382 370.455V371.818H302.44V370.455H306.382ZM303.335 368.886H305.15V374.989C305.15 375.156 305.176 375.287 305.227 375.381C305.278 375.472 305.349 375.536 305.44 375.572C305.534 375.609 305.642 375.628 305.764 375.628C305.849 375.628 305.934 375.621 306.02 375.607C306.105 375.589 306.17 375.577 306.216 375.568L306.501 376.919C306.41 376.947 306.282 376.98 306.118 377.017C305.953 377.057 305.752 377.081 305.517 377.089C305.079 377.107 304.696 377.048 304.366 376.915C304.039 376.781 303.785 376.574 303.603 376.293C303.422 376.011 303.332 375.656 303.335 375.227V368.886ZM310.477 377.128C309.804 377.128 309.224 376.991 308.738 376.719C308.255 376.443 307.883 376.054 307.622 375.551C307.36 375.045 307.23 374.447 307.23 373.757C307.23 373.084 307.36 372.493 307.622 371.984C307.883 371.476 308.251 371.08 308.725 370.795C309.203 370.511 309.762 370.369 310.404 370.369C310.836 370.369 311.238 370.439 311.61 370.578C311.985 370.714 312.312 370.92 312.591 371.196C312.872 371.472 313.091 371.818 313.247 372.236C313.403 372.651 313.481 373.136 313.481 373.693V374.192H307.954V373.067H311.772C311.772 372.805 311.716 372.574 311.602 372.372C311.488 372.17 311.331 372.013 311.129 371.899C310.93 371.783 310.699 371.724 310.434 371.724C310.159 371.724 309.914 371.788 309.701 371.916C309.491 372.041 309.326 372.21 309.207 372.423C309.088 372.634 309.027 372.868 309.024 373.126V374.196C309.024 374.52 309.083 374.8 309.203 375.036C309.325 375.271 309.497 375.453 309.718 375.581C309.94 375.709 310.203 375.773 310.507 375.773C310.708 375.773 310.893 375.744 311.061 375.688C311.228 375.631 311.372 375.545 311.491 375.432C311.61 375.318 311.701 375.179 311.764 375.014L313.443 375.125C313.358 375.528 313.183 375.881 312.919 376.182C312.657 376.48 312.319 376.713 311.904 376.881C311.493 377.045 311.017 377.128 310.477 377.128ZM314.666 377V370.455H316.396V371.609H316.473C316.609 371.226 316.836 370.923 317.154 370.702C317.473 370.48 317.853 370.369 318.297 370.369C318.745 370.369 319.127 370.482 319.443 370.706C319.758 370.928 319.968 371.229 320.074 371.609H320.142C320.275 371.234 320.517 370.935 320.866 370.71C321.218 370.483 321.635 370.369 322.115 370.369C322.725 370.369 323.221 370.564 323.602 370.953C323.985 371.339 324.177 371.888 324.177 372.598V377H322.366V372.956C322.366 372.592 322.27 372.32 322.076 372.138C321.883 371.956 321.642 371.865 321.352 371.865C321.022 371.865 320.765 371.97 320.581 372.18C320.396 372.388 320.304 372.662 320.304 373.003V377H318.544V372.918C318.544 372.597 318.451 372.341 318.267 372.151C318.085 371.96 317.845 371.865 317.547 371.865C317.345 371.865 317.163 371.916 317.001 372.018C316.842 372.118 316.716 372.259 316.622 372.44C316.528 372.619 316.481 372.83 316.481 373.071V377H314.666ZM331.597 377.119C330.961 377.119 330.394 377.01 329.897 376.791C329.403 376.57 329.012 376.266 328.725 375.879C328.441 375.49 328.295 375.041 328.286 374.533H330.144C330.156 374.746 330.225 374.933 330.353 375.095C330.484 375.254 330.657 375.378 330.873 375.466C331.089 375.554 331.332 375.598 331.602 375.598C331.883 375.598 332.131 375.548 332.347 375.449C332.563 375.349 332.732 375.212 332.854 375.036C332.977 374.859 333.038 374.656 333.038 374.426C333.038 374.193 332.972 373.987 332.842 373.808C332.714 373.626 332.529 373.484 332.288 373.382C332.049 373.28 331.765 373.229 331.435 373.229H330.621V371.874H331.435C331.714 371.874 331.96 371.825 332.173 371.729C332.388 371.632 332.556 371.499 332.675 371.328C332.795 371.155 332.854 370.953 332.854 370.723C332.854 370.504 332.802 370.312 332.697 370.148C332.594 369.98 332.45 369.849 332.262 369.756C332.077 369.662 331.862 369.615 331.614 369.615C331.364 369.615 331.136 369.661 330.928 369.751C330.721 369.839 330.555 369.966 330.43 370.131C330.305 370.295 330.238 370.489 330.229 370.71H328.461C328.469 370.207 328.613 369.764 328.891 369.381C329.17 368.997 329.545 368.697 330.016 368.482C330.491 368.263 331.026 368.153 331.623 368.153C332.225 368.153 332.752 368.263 333.204 368.482C333.656 368.7 334.006 368.996 334.256 369.368C334.509 369.737 334.634 370.152 334.631 370.612C334.634 371.101 334.482 371.509 334.175 371.835C333.871 372.162 333.475 372.369 332.987 372.457V372.526C333.629 372.608 334.117 372.831 334.452 373.195C334.79 373.555 334.958 374.007 334.955 374.55C334.958 375.047 334.815 375.489 334.525 375.875C334.238 376.261 333.842 376.565 333.336 376.787C332.83 377.009 332.251 377.119 331.597 377.119Z" fill="#333333"/>
<path d="M291.812 372C291.812 368.686 289.126 366 285.812 366C282.499 366 279.812 368.686 279.812 372C279.812 375.314 282.499 378 285.812 378C289.126 378 291.812 375.314 291.812 372Z" fill="#2DDAC1"/>
<path d="M376.322 368.273V377H374.477V368.273H376.322ZM381.288 370.455V371.818H377.346V370.455H381.288ZM378.241 368.886H380.056V374.989C380.056 375.156 380.082 375.287 380.133 375.381C380.184 375.472 380.255 375.536 380.346 375.572C380.44 375.609 380.548 375.628 380.67 375.628C380.755 375.628 380.841 375.621 380.926 375.607C381.011 375.589 381.076 375.577 381.122 375.568L381.407 376.919C381.316 376.947 381.189 376.98 381.024 377.017C380.859 377.057 380.659 377.081 380.423 377.089C379.985 377.107 379.602 377.048 379.272 376.915C378.946 376.781 378.691 376.574 378.51 376.293C378.328 376.011 378.238 375.656 378.241 375.227V368.886ZM385.383 377.128C384.71 377.128 384.13 376.991 383.645 376.719C383.162 376.443 382.789 376.054 382.528 375.551C382.267 375.045 382.136 374.447 382.136 373.757C382.136 373.084 382.267 372.493 382.528 371.984C382.789 371.476 383.157 371.08 383.632 370.795C384.109 370.511 384.669 370.369 385.311 370.369C385.743 370.369 386.145 370.439 386.517 370.578C386.892 370.714 387.218 370.92 387.497 371.196C387.778 371.472 387.997 371.818 388.153 372.236C388.309 372.651 388.387 373.136 388.387 373.693V374.192H382.86V373.067H386.679C386.679 372.805 386.622 372.574 386.508 372.372C386.395 372.17 386.237 372.013 386.035 371.899C385.836 371.783 385.605 371.724 385.341 371.724C385.065 371.724 384.821 371.788 384.608 371.916C384.397 372.041 384.233 372.21 384.113 372.423C383.994 372.634 383.933 372.868 383.93 373.126V374.196C383.93 374.52 383.99 374.8 384.109 375.036C384.231 375.271 384.403 375.453 384.625 375.581C384.846 375.709 385.109 375.773 385.413 375.773C385.615 375.773 385.799 375.744 385.967 375.688C386.135 375.631 386.278 375.545 386.397 375.432C386.517 375.318 386.608 375.179 386.67 375.014L388.349 375.125C388.264 375.528 388.089 375.881 387.825 376.182C387.564 376.48 387.225 376.713 386.811 376.881C386.399 377.045 385.923 377.128 385.383 377.128ZM389.572 377V370.455H391.302V371.609H391.379C391.515 371.226 391.743 370.923 392.061 370.702C392.379 370.48 392.76 370.369 393.203 370.369C393.652 370.369 394.034 370.482 394.349 370.706C394.664 370.928 394.875 371.229 394.98 371.609H395.048C395.181 371.234 395.423 370.935 395.772 370.71C396.125 370.483 396.541 370.369 397.021 370.369C397.632 370.369 398.127 370.564 398.508 370.953C398.892 371.339 399.083 371.888 399.083 372.598V377H397.272V372.956C397.272 372.592 397.176 372.32 396.983 372.138C396.789 371.956 396.548 371.865 396.258 371.865C395.929 371.865 395.672 371.97 395.487 372.18C395.302 372.388 395.21 372.662 395.21 373.003V377H393.45V372.918C393.45 372.597 393.358 372.341 393.173 372.151C392.991 371.96 392.751 371.865 392.453 371.865C392.251 371.865 392.069 371.916 391.907 372.018C391.748 372.118 391.622 372.259 391.528 372.44C391.434 372.619 391.387 372.83 391.387 373.071V377H389.572ZM403.146 375.466V374.013L406.789 368.273H408.042V370.284H407.3L405.004 373.919V373.987H410.181V375.466H403.146ZM407.335 377V375.023L407.369 374.379V368.273H409.099V377H407.335Z" fill="#333333"/>
<path d="M366.719 372C366.719 368.686 364.032 366 360.719 366C357.405 366 354.719 368.686 354.719 372C354.719 375.314 357.405 378 360.719 378C364.032 378 366.719 375.314 366.719 372Z" fill="#4B93E6"/>
</g>
<defs>
<clipPath id="clip0_266_560">
<rect width="650" height="400" fill="white" transform="translate(-57)"/>
</clipPath>
</defs>
</svg>
