<svg width="25" height="25" viewBox="0 0 25 25" fill="none" xmlns="http://www.w3.org/2000/svg">
<path fill-rule="evenodd" clip-rule="evenodd" d="M13.5423 3.1237C13.5423 2.54841 13.076 2.08203 12.5007 2.08203C11.9253 2.08203 11.459 2.54841 11.459 3.1237V4.22983C7.68948 4.69989 4.70184 7.68753 4.23179 11.457H3.12565C2.55036 11.457 2.08398 11.9234 2.08398 12.4987C2.08398 13.074 2.55036 13.5404 3.12565 13.5404H4.23179C4.70184 17.3098 7.68948 20.2976 11.459 20.7676V21.8737C11.459 22.449 11.9253 22.9154 12.5007 22.9154C13.076 22.9154 13.5423 22.449 13.5423 21.8737V20.7676C17.3118 20.2976 20.2995 17.3098 20.7695 13.5404H21.8757C22.451 13.5404 22.9173 13.074 22.9173 12.4987C22.9173 11.9234 22.451 11.457 21.8757 11.457H20.7695C20.2995 7.68753 17.3118 4.69989 13.5423 4.22983V3.1237ZM10.4173 12.4987C10.4173 11.3481 11.35 10.4154 12.5007 10.4154C13.6513 10.4154 14.584 11.3481 14.584 12.4987C14.584 13.6493 13.6513 14.582 12.5007 14.582C11.35 14.582 10.4173 13.6493 10.4173 12.4987ZM12.5007 8.33203C10.1995 8.33203 8.33398 10.1975 8.33398 12.4987C8.33398 14.7998 10.1995 16.6654 12.5007 16.6654C14.8018 16.6654 16.6673 14.7998 16.6673 12.4987C16.6673 10.1975 14.8018 8.33203 12.5007 8.33203Z" fill="#C6C6C6"/>
</svg>
