<svg width="25" height="25" viewBox="0 0 25 25" fill="none" xmlns="http://www.w3.org/2000/svg">
<path d="M18.7493 13.543C15.8743 13.543 13.541 15.8763 13.541 18.7513C13.541 21.6263 15.8743 23.9596 18.7493 23.9596C21.6243 23.9596 23.9577 21.6263 23.9577 18.7513C23.9577 15.8763 21.6243 13.543 18.7493 13.543ZM17.8743 20.0742C18.1348 20.3346 18.1348 20.7617 17.8743 21.0326C17.7389 21.168 17.5723 21.2305 17.3952 21.2305C17.2181 21.2305 17.0514 21.168 16.916 21.0326L15.1139 19.2305C14.8535 18.9701 14.8535 18.543 15.1139 18.2721L16.916 16.4701C17.1764 16.2096 17.6035 16.2096 17.8743 16.4701C18.1348 16.7305 18.1348 17.1576 17.8743 17.4284L16.5514 18.7513L17.8743 20.0742ZM22.3743 19.2305L20.5723 21.0326C20.4368 21.168 20.2702 21.2305 20.0931 21.2305C19.916 21.2305 19.7493 21.168 19.6139 21.0326C19.3535 20.7721 19.3535 20.3451 19.6139 20.0742L20.9473 18.7513L19.6243 17.4284C19.3639 17.168 19.3639 16.7409 19.6243 16.4701C19.8848 16.2096 20.3118 16.2096 20.5827 16.4701L22.3848 18.2721C22.6348 18.543 22.6348 18.9596 22.3743 19.2305Z" fill="#C6C6C6"/>
<path d="M21.875 7.29231V11.9486C21.875 12.3132 21.5208 12.5632 21.1875 12.4382C20.0312 11.9902 18.7396 11.8444 17.3854 12.1152C14.6771 12.6569 12.5208 14.8757 12.0729 17.6048C11.8021 19.2715 12.1354 20.8444 12.8958 22.1257C13.1042 22.4798 12.8542 22.9173 12.4479 22.9173H8.33333C4.6875 22.9173 3.125 20.834 3.125 17.709V7.29231C3.125 4.52148 4.35417 2.57356 7.17708 2.16731C7.47917 2.12565 7.75 2.36523 7.76042 2.67773L7.79167 3.72981C7.82292 5.39648 9.22917 6.77148 10.9167 6.77148H14.0625C15.7812 6.77148 17.1875 5.36523 17.1875 3.64648V2.67773C17.1875 2.36523 17.4583 2.11523 17.7604 2.1569C20.625 2.54231 21.875 4.50065 21.875 7.29231Z" fill="#C6C6C6"/>
<path d="M15.6243 3.1237V3.64453C15.6243 4.4987 14.916 5.20703 14.0618 5.20703H10.9056C10.0619 5.20703 9.36395 4.52995 9.34312 3.6862L9.3327 3.15495C9.31187 2.5612 9.78062 2.08203 10.3744 2.08203H14.5827C15.1556 2.08203 15.6243 2.55078 15.6243 3.1237Z" fill="#C6C6C6"/>
</svg>
