<svg width="25" height="25" viewBox="0 0 25 25" fill="none" xmlns="http://www.w3.org/2000/svg">
<path d="M7.55273 12.4987C7.34553 12.4987 7.14682 12.581 7.00031 12.7275C6.85379 12.874 6.77148 13.0727 6.77148 13.2799C6.77148 13.4871 6.85379 13.6859 7.00031 13.8324C7.14682 13.9789 7.34553 14.0612 7.55273 14.0612H8.07357C8.28077 14.0612 8.47948 13.9789 8.62599 13.8324C8.77251 13.6859 8.85482 13.4871 8.85482 13.2799C8.85482 13.0727 8.77251 12.874 8.62599 12.7275C8.47948 12.581 8.28077 12.4987 8.07357 12.4987H7.55273ZM6.77148 9.63411C6.77148 9.42691 6.85379 9.2282 7.00031 9.08169C7.14682 8.93517 7.34553 8.85286 7.55273 8.85286H8.07357C8.28077 8.85286 8.47948 8.93517 8.62599 9.08169C8.77251 9.2282 8.85482 9.42691 8.85482 9.63411C8.85482 9.84131 8.77251 10.04 8.62599 10.1865C8.47948 10.3331 8.28077 10.4154 8.07357 10.4154H7.55273C7.34553 10.4154 7.14682 10.3331 7.00031 10.1865C6.85379 10.04 6.77148 9.84131 6.77148 9.63411ZM7.55273 5.20703C7.34553 5.20703 7.14682 5.28934 7.00031 5.43585C6.85379 5.58237 6.77148 5.78108 6.77148 5.98828C6.77148 6.19548 6.85379 6.3942 7.00031 6.54071C7.14682 6.68722 7.34553 6.76953 7.55273 6.76953H8.07357C8.28077 6.76953 8.47948 6.68722 8.62599 6.54071C8.77251 6.3942 8.85482 6.19548 8.85482 5.98828C8.85482 5.78108 8.77251 5.58237 8.62599 5.43585C8.47948 5.28934 8.28077 5.20703 8.07357 5.20703H7.55273ZM10.4173 13.2799C10.4173 13.0727 10.4996 12.874 10.6461 12.7275C10.7927 12.581 10.9914 12.4987 11.1986 12.4987H11.7194C11.9266 12.4987 12.1253 12.581 12.2718 12.7275C12.4183 12.874 12.5007 13.0727 12.5007 13.2799C12.5007 13.4871 12.4183 13.6859 12.2718 13.8324C12.1253 13.9789 11.9266 14.0612 11.7194 14.0612H11.1986C10.9914 14.0612 10.7927 13.9789 10.6461 13.8324C10.4996 13.6859 10.4173 13.4871 10.4173 13.2799ZM11.1986 8.85286C10.9914 8.85286 10.7927 8.93517 10.6461 9.08169C10.4996 9.2282 10.4173 9.42691 10.4173 9.63411C10.4173 9.84131 10.4996 10.04 10.6461 10.1865C10.7927 10.3331 10.9914 10.4154 11.1986 10.4154H11.7194C11.9266 10.4154 12.1253 10.3331 12.2718 10.1865C12.4183 10.04 12.5007 9.84131 12.5007 9.63411C12.5007 9.42691 12.4183 9.2282 12.2718 9.08169C12.1253 8.93517 11.9266 8.85286 11.7194 8.85286H11.1986ZM10.4173 5.98828C10.4173 5.78108 10.4996 5.58237 10.6461 5.43585C10.7927 5.28934 10.9914 5.20703 11.1986 5.20703H11.7194C11.9266 5.20703 12.1253 5.28934 12.2718 5.43585C12.4183 5.58237 12.5007 5.78108 12.5007 5.98828C12.5007 6.19548 12.4183 6.3942 12.2718 6.54071C12.1253 6.68722 11.9266 6.76953 11.7194 6.76953H11.1986C10.9914 6.76953 10.7927 6.68722 10.6461 6.54071C10.4996 6.3942 10.4173 6.19548 10.4173 5.98828ZM14.8444 12.4987C14.6372 12.4987 14.4385 12.581 14.292 12.7275C14.1455 12.874 14.0632 13.0727 14.0632 13.2799C14.0632 13.4871 14.1455 13.6859 14.292 13.8324C14.4385 13.9789 14.6372 14.0612 14.8444 14.0612H15.3652C15.5724 14.0612 15.7711 13.9789 15.9177 13.8324C16.0642 13.6859 16.1465 13.4871 16.1465 13.2799C16.1465 13.0727 16.0642 12.874 15.9177 12.7275C15.7711 12.581 15.5724 12.4987 15.3652 12.4987H14.8444ZM14.0632 9.63411C14.0632 9.42691 14.1455 9.2282 14.292 9.08169C14.4385 8.93517 14.6372 8.85286 14.8444 8.85286H15.3652C15.5724 8.85286 15.7711 8.93517 15.9177 9.08169C16.0642 9.2282 16.1465 9.42691 16.1465 9.63411C16.1465 9.84131 16.0642 10.04 15.9177 10.1865C15.7711 10.3331 15.5724 10.4154 15.3652 10.4154H14.8444C14.6372 10.4154 14.4385 10.3331 14.292 10.1865C14.1455 10.04 14.0632 9.84131 14.0632 9.63411ZM14.8444 5.20703C14.6372 5.20703 14.4385 5.28934 14.292 5.43585C14.1455 5.58237 14.0632 5.78108 14.0632 5.98828C14.0632 6.19548 14.1455 6.3942 14.292 6.54071C14.4385 6.68722 14.6372 6.76953 14.8444 6.76953H15.3652C15.5724 6.76953 15.7711 6.68722 15.9177 6.54071C16.0642 6.3942 16.1465 6.19548 16.1465 5.98828C16.1465 5.78108 16.0642 5.58237 15.9177 5.43585C15.7711 5.28934 15.5724 5.20703 15.3652 5.20703H14.8444Z" fill="#C6C6C6"/>
<path fill-rule="evenodd" clip-rule="evenodd" d="M3.125 20.8346C3.125 21.3872 3.34449 21.9171 3.73519 22.3078C4.12589 22.6985 4.6558 22.918 5.20833 22.918H9.11458C9.32178 22.918 9.5205 22.8357 9.66701 22.6891C9.81352 22.5426 9.89583 22.3439 9.89583 22.1367V19.793H13.0208V22.1367C13.0208 22.568 13.3708 22.918 13.8021 22.918H17.7083C17.8042 22.918 17.899 22.9117 17.9917 22.8992C18.0484 22.9118 18.1064 22.9181 18.1646 22.918H22.3958C22.9484 22.918 23.4783 22.6985 23.869 22.3078C24.2597 21.9171 24.4792 21.3872 24.4792 20.8346V12.8919C24.4792 12.5685 24.4039 12.2495 24.2592 11.9602C24.1146 11.6709 23.9046 11.4193 23.6458 11.2253L22.6042 10.444C22.5221 10.3825 22.4287 10.3377 22.3293 10.3122C22.2299 10.2867 22.1265 10.2811 22.0249 10.2956C21.9234 10.3101 21.8257 10.3445 21.7374 10.3968C21.6491 10.449 21.572 10.5182 21.5104 10.6003C21.4489 10.6823 21.4041 10.7757 21.3786 10.8751C21.3531 10.9745 21.3475 11.0779 21.362 11.1795C21.3765 11.2811 21.4109 11.3788 21.4632 11.4671C21.5154 11.5553 21.5846 11.6325 21.6667 11.694L22.7083 12.4753C22.773 12.5238 22.8255 12.5867 22.8617 12.659C22.8978 12.7313 22.9167 12.8111 22.9167 12.8919V20.8346C22.9167 20.9728 22.8618 21.1052 22.7641 21.2029C22.6664 21.3006 22.534 21.3555 22.3958 21.3555H19.726C19.7687 21.1888 19.7917 21.0148 19.7917 20.8346V3.1263C19.7917 2.57377 19.5722 2.04386 19.1815 1.65316C18.7908 1.26246 18.2609 1.04297 17.7083 1.04297H5.20833C4.6558 1.04297 4.12589 1.26246 3.73519 1.65316C3.34449 2.04386 3.125 2.57377 3.125 3.1263V20.8346ZM5.20833 21.3555C5.0702 21.3555 4.93772 21.3006 4.84005 21.2029C4.74237 21.1052 4.6875 20.9728 4.6875 20.8346V3.1263C4.6875 2.98817 4.74237 2.85569 4.84005 2.75802C4.93772 2.66034 5.0702 2.60547 5.20833 2.60547H17.7083C17.8465 2.60547 17.9789 2.66034 18.0766 2.75802C18.1743 2.85569 18.2292 2.98817 18.2292 3.1263V20.8346C18.2292 20.9728 18.1743 21.1052 18.0766 21.2029C17.9789 21.3006 17.8465 21.3555 17.7083 21.3555H14.5833V19.0117C14.5833 18.8045 14.501 18.6058 14.3545 18.4593C14.208 18.3128 14.0093 18.2305 13.8021 18.2305H9.11458C8.90738 18.2305 8.70867 18.3128 8.56216 18.4593C8.41564 18.6058 8.33333 18.8045 8.33333 19.0117V21.3555H5.20833Z" fill="#C6C6C6"/>
</svg>
