<svg width="25" height="25" viewBox="0 0 25 25" fill="none" xmlns="http://www.w3.org/2000/svg">
<path d="M24.2188 12.5C24.426 12.5 24.6247 12.4177 24.7712 12.2712C24.9177 12.1247 25 11.926 25 11.7188V7.03125C25 6.92884 24.9798 6.82744 24.9406 6.73281C24.8605 6.54161 24.7084 6.38954 24.5172 6.30938C24.4226 6.27021 24.3212 6.25004 24.2188 6.25H19.5312C19.324 6.25 19.1253 6.33231 18.9788 6.47882C18.8323 6.62534 18.75 6.82405 18.75 7.03125C18.75 7.23845 18.8323 7.43716 18.9788 7.58368C19.1253 7.73019 19.324 7.8125 19.5312 7.8125H22.3328L13.2812 16.8641L10.7094 14.2906C10.6368 14.2179 10.5506 14.1601 10.4557 14.1208C10.3608 14.0814 10.259 14.0611 10.1562 14.0611C10.0535 14.0611 9.95174 14.0814 9.85682 14.1208C9.76191 14.1601 9.6757 14.2179 9.60312 14.2906L1.5625 22.3328V0.78125C1.5625 0.57405 1.48019 0.375336 1.33368 0.228823C1.18717 0.08231 0.98845 0 0.78125 0C0.57405 0 0.375335 0.08231 0.228822 0.228823C0.0823094 0.375336 0 0.57405 0 0.78125V24.2188C4.02115e-05 24.3212 0.0202146 24.4226 0.0593752 24.5172C0.13954 24.7084 0.291606 24.8605 0.482813 24.9406C0.577439 24.9798 0.678841 25 0.78125 25H24.2188C24.426 25 24.6247 24.9177 24.7712 24.7712C24.9177 24.6247 25 24.426 25 24.2188C25 24.0115 24.9177 23.8128 24.7712 23.6663C24.6247 23.5198 24.426 23.4375 24.2188 23.4375H2.66719L10.1562 15.9484L12.7281 18.5219C12.8008 18.5944 12.8871 18.6518 12.982 18.691C13.0769 18.7301 13.1786 18.7502 13.2812 18.75C13.3839 18.7502 13.4856 18.7301 13.5805 18.691C13.6754 18.6518 13.7617 18.5944 13.8344 18.5219L23.4375 8.91719V11.7188C23.4375 11.926 23.5198 12.1247 23.6663 12.2712C23.8128 12.4177 24.0115 12.5 24.2188 12.5Z" fill="#C6C6C6"/>
</svg>
