<svg width="26" height="25" viewBox="0 0 26 25" fill="none" xmlns="http://www.w3.org/2000/svg">
<g clip-path="url(#clip0_199_778)">
<path d="M13.0203 23.9596L0.705078 17.7096L5.73381 15.1055L0.705078 12.5013L5.73381 9.89713L0.705078 7.29297L13.0203 1.04297L25.3356 7.29297L20.3069 9.89713L25.3356 12.5013L20.3069 15.1055L25.3356 17.7096L13.0203 23.9596ZM5.22068 17.7096L13.123 21.7721L20.9226 17.7096L18.0491 16.2513L13.0203 18.7513L7.99161 16.1471L5.22068 17.7096ZM5.22068 12.5013L13.123 16.5638L20.9226 12.5013L18.0491 11.043L13.0203 13.6471L7.99161 11.043L5.22068 12.5013ZM5.22068 7.29297L13.123 11.3555L20.9226 7.29297L13.0203 3.33464L5.22068 7.29297Z" fill="#C6C6C6"/>
</g>
<defs>
<clipPath id="clip0_199_778">
<rect width="24.6305" height="25" fill="white" transform="translate(0.705078)"/>
</clipPath>
</defs>
</svg>
