<svg width="25" height="25" viewBox="0 0 25 25" fill="none" xmlns="http://www.w3.org/2000/svg">
<g clip-path="url(#clip0_199_418)">
<path d="M12.5 0C5.59614 0 0 5.59614 0 12.5C0 19.4039 5.59614 25 12.5 25C19.4039 25 25 19.4039 25 12.5C25 5.59614 19.4039 0 12.5 0ZM12.5 23.0469C6.67495 23.0469 1.95312 18.325 1.95312 12.5C1.95312 6.67495 6.67495 1.95312 12.5 1.95312C18.325 1.95312 23.0469 6.67495 23.0469 12.5C23.0469 18.325 18.325 23.0469 12.5 23.0469Z" fill="#C6C6C6"/>
<path d="M15.625 10.1562H9.375V14.8438H15.625V10.1562Z" fill="#C6C6C6"/>
<path d="M14.0625 7.8125H10.9375L12.5 9.375L14.0625 7.8125Z" fill="#C6C6C6"/>
<path d="M10.9375 17.189H14.0625L12.5 15.625L10.9375 17.189Z" fill="#C6C6C6"/>
</g>
<defs>
<clipPath id="clip0_199_418">
<rect width="25" height="25" fill="white"/>
</clipPath>
</defs>
</svg>
