<svg width="25" height="25" viewBox="0 0 25 25" fill="none" xmlns="http://www.w3.org/2000/svg">
<path d="M16.8652 2.08203H8.13607C4.3444 2.08203 2.08398 4.34245 2.08398 8.13411V16.8529C2.08398 20.6549 4.3444 22.9154 8.13607 22.9154H16.8548C20.6465 22.9154 22.9069 20.6549 22.9069 16.8633V8.13411C22.9173 4.34245 20.6569 2.08203 16.8652 2.08203ZM7.94857 18.9049C7.94857 19.332 7.5944 19.6862 7.16732 19.6862C6.74023 19.6862 6.38607 19.332 6.38607 18.9049V16.7487C6.38607 16.3216 6.74023 15.9674 7.16732 15.9674C7.5944 15.9674 7.94857 16.3216 7.94857 16.7487V18.9049ZM13.2819 18.9049C13.2819 19.332 12.9277 19.6862 12.5007 19.6862C12.0736 19.6862 11.7194 19.332 11.7194 18.9049V14.582C11.7194 14.1549 12.0736 13.8008 12.5007 13.8008C12.9277 13.8008 13.2819 14.1549 13.2819 14.582V18.9049ZM18.6152 18.9049C18.6152 19.332 18.2611 19.6862 17.834 19.6862C17.4069 19.6862 17.0527 19.332 17.0527 18.9049V12.4258C17.0527 11.9987 17.4069 11.6445 17.834 11.6445C18.2611 11.6445 18.6152 11.9987 18.6152 12.4258V18.9049ZM18.6152 9.13411C18.6152 9.5612 18.2611 9.91536 17.834 9.91536C17.4069 9.91536 17.0527 9.5612 17.0527 9.13411V8.1237C14.3965 10.8529 11.0736 12.7799 7.35482 13.707C7.29232 13.7279 7.22982 13.7279 7.16732 13.7279C6.81315 13.7279 6.50065 13.4883 6.4069 13.1341C6.30273 12.7174 6.55273 12.2904 6.97982 12.1862C10.4902 11.3112 13.6152 9.46745 16.0944 6.86328H14.7923C14.3652 6.86328 14.0111 6.50911 14.0111 6.08203C14.0111 5.65495 14.3652 5.30078 14.7923 5.30078H17.8444C17.8861 5.30078 17.9173 5.32161 17.959 5.32161C18.0111 5.33203 18.0631 5.33203 18.1152 5.35286C18.1673 5.3737 18.209 5.40495 18.2611 5.4362C18.2923 5.45703 18.3236 5.46745 18.3548 5.48828C18.3652 5.4987 18.3652 5.50911 18.3757 5.50911C18.4173 5.55078 18.4486 5.59245 18.4798 5.63411C18.5111 5.67578 18.5423 5.70703 18.5527 5.7487C18.5736 5.79036 18.5736 5.83203 18.584 5.88411C18.5944 5.9362 18.6152 5.98828 18.6152 6.05078C18.6152 6.0612 18.6257 6.07161 18.6257 6.08203V9.13411H18.6152Z" fill="#C6C6C6"/>
</svg>
