<svg width="20" height="21" viewBox="0 0 20 21" fill="none" xmlns="http://www.w3.org/2000/svg">
<path d="M18.8713 2.49219H14.8304V0.929688C14.8304 0.822266 14.7438 0.734375 14.638 0.734375H13.291C13.1852 0.734375 13.0986 0.822266 13.0986 0.929688V2.49219H6.94093V0.929688C6.94093 0.822266 6.85433 0.734375 6.7485 0.734375H5.40152C5.29568 0.734375 5.20909 0.822266 5.20909 0.929688V2.49219H1.16814C0.742399 2.49219 0.398438 2.84131 0.398438 3.27344V19.4844C0.398438 19.9165 0.742399 20.2656 1.16814 20.2656H18.8713C19.2971 20.2656 19.6411 19.9165 19.6411 19.4844V3.27344C19.6411 2.84131 19.2971 2.49219 18.8713 2.49219ZM14.4095 8.56397L9.29574 15.71C9.25979 15.7599 9.21274 15.8005 9.1584 15.8285C9.10407 15.8565 9.04399 15.8711 8.98305 15.8711C8.92211 15.8711 8.86203 15.8565 8.8077 15.8285C8.75336 15.8005 8.70631 15.7599 8.67036 15.71L5.63002 11.4619C5.53862 11.3325 5.63002 11.1519 5.78637 11.1519H7.11411C7.23678 11.1519 7.35464 11.2129 7.4268 11.313L8.98305 13.4858L12.6127 8.4126C12.6848 8.3125 12.8003 8.25146 12.9254 8.25146H14.2531C14.4095 8.25391 14.5009 8.43457 14.4095 8.56397Z" fill="#C6C6C6"/>
</svg>
