<svg width="26" height="28" viewBox="0 0 26 28" fill="none" xmlns="http://www.w3.org/2000/svg">
<path d="M11.3931 0.535156V12.6828H14.6069V0.535215H11.3931V0.535156ZM9.72215 3.21547C4.35391 4.65822 0.402344 9.55871 0.402344 15.3823C0.402344 22.3398 6.04246 27.98 13 27.98C19.9574 27.98 25.5977 22.3398 25.5977 15.3823C25.5977 9.55871 21.6461 4.65822 16.2779 3.21553V6.17275C20.0631 7.52006 22.773 11.1347 22.773 15.3823C22.773 20.7798 18.3975 25.1554 13 25.1554C7.60246 25.1554 3.22691 20.7798 3.22691 15.3823C3.22691 11.1346 5.93687 7.52 9.72215 6.17264V3.21547Z" fill="black"/>
</svg>
