<svg width="24" height="18" viewBox="0 0 24 18" fill="none" xmlns="http://www.w3.org/2000/svg">
<path fill-rule="evenodd" clip-rule="evenodd" d="M5.32165 0.902763L11.8581 5.6707L18.5356 0.738551C19.5558 -0.0670245 20.8637 -0.206249 21.9325 0.331438C23.0191 0.878101 23.75 2.0642 23.75 3.68389V14.0773C23.75 14.6667 23.6759 15.5111 23.2267 16.2227C22.7445 16.9867 21.8988 17.493 20.5991 17.493H17.9862C17.6411 17.493 17.3612 17.2131 17.3612 16.868V9.62608L12.2334 13.4398C12.0116 13.6048 11.7078 13.6045 11.4862 13.439L6.38873 9.62958V14.0233C6.38873 14.3685 6.10891 14.6483 5.76373 14.6483C5.41855 14.6483 5.13873 14.3685 5.13873 14.0233V8.38233C5.13873 8.1457 5.27226 7.92945 5.48374 7.82358C5.69521 7.71758 5.94839 7.74008 6.13786 7.8817L11.8614 12.1587L17.6132 7.88083C17.8029 7.73983 18.0557 7.7177 18.2669 7.82383C18.478 7.92995 18.6112 8.14608 18.6112 8.38233V16.243H20.5991C21.5292 16.243 21.9465 15.9091 22.1698 15.5555C22.426 15.1493 22.5 14.5985 22.5 14.0773V3.68389C22.5 2.45606 21.968 1.74856 21.3708 1.44809C20.7589 1.14024 19.9665 1.1979 19.3042 1.7243C19.2985 1.72889 19.2926 1.73338 19.2867 1.73775L12.2318 6.9487C12.0121 7.11095 11.7126 7.11183 11.4921 6.95095L4.57727 1.907C3.95745 1.44498 3.04066 1.16614 2.33724 1.27278C2.00186 1.32363 1.74791 1.45549 1.57415 1.66111C1.40029 1.86686 1.25 2.21363 1.25 2.80116V14.5615C1.25 15.388 1.54534 15.7808 1.8278 15.9836C2.14466 16.2111 2.54457 16.2686 2.80499 16.2453C2.82344 16.2437 2.84196 16.243 2.86049 16.243H4.51373C4.85891 16.243 5.13873 16.5227 5.13873 16.868C5.13873 17.2131 4.85891 17.493 4.51373 17.493H2.88609C2.40204 17.5297 1.7009 17.4313 1.09882 16.9991C0.449825 16.5331 0 15.7395 0 14.5615V2.80116C0 1.99815 0.208988 1.33998 0.6194 0.854313C1.02991 0.368526 1.58525 0.122501 2.14988 0.0369008C3.24526 -0.129162 4.48986 0.283851 5.32165 0.902763Z" fill="black"/>
</svg>
