<svg width="24" height="28" viewBox="0 0 24 28" fill="none" xmlns="http://www.w3.org/2000/svg">
<path d="M9.50014 25.25H14.5001C14.5001 25.913 14.2368 26.5489 13.7679 27.0178C13.2991 27.4866 12.6632 27.75 12.0001 27.75C11.3371 27.75 10.7012 27.4866 10.2324 27.0178C9.76354 26.5489 9.50014 25.913 9.50014 25.25ZM0.845145 21.9787C0.750514 21.7503 0.725775 21.4989 0.774059 21.2563C0.822343 21.0138 0.941479 20.7911 1.11639 20.6162L3.25014 18.4825V11.5C3.25416 9.39812 4.01401 7.3678 5.39094 5.77974C6.76788 4.19167 8.67005 3.15181 10.7501 2.85V1.5C10.7501 1.16848 10.8818 0.850537 11.1163 0.616116C11.3507 0.381696 11.6686 0.25 12.0001 0.25C12.3317 0.25 12.6496 0.381696 12.884 0.616116C13.1184 0.850537 13.2501 1.16848 13.2501 1.5V2.85C15.3302 3.15181 17.2324 4.19167 18.6093 5.77974C19.9863 7.3678 20.7461 9.39812 20.7501 11.5V18.4825L22.8839 20.6162C23.0587 20.7911 23.1777 21.0138 23.2259 21.2562C23.2741 21.4986 23.2493 21.7499 23.1547 21.9783C23.0602 22.2067 22.9 22.4019 22.6945 22.5392C22.489 22.6766 22.2473 22.7499 22.0001 22.75H2.00014C1.75294 22.7501 1.51126 22.6768 1.30568 22.5395C1.10009 22.4023 0.939825 22.2071 0.845145 21.9787ZM5.01764 20.25H18.9826L18.6164 19.8837C18.382 19.6494 18.2502 19.3315 18.2501 19V11.5C18.2501 9.8424 17.5917 8.25268 16.4196 7.08058C15.2475 5.90848 13.6577 5.25 12.0001 5.25C10.3425 5.25 8.75283 5.90848 7.58073 7.08058C6.40863 8.25268 5.75014 9.8424 5.75014 11.5V19C5.75007 19.3315 5.61833 19.6494 5.38389 19.8837L5.01764 20.25Z" fill="black"/>
</svg>
